<?xml version="1.0" encoding="UTF-8"?>
<svg width="201px" height="102px" viewBox="0 0 201 102" version="1.1" xmlns="http://www.w3.org/2000/svg" xmlns:xlink="http://www.w3.org/1999/xlink">
    <!-- Generator: Sketch 55.2 (78181) - https://sketchapp.com -->
    <title>Artboard</title>
    <desc>Created with Sketch.</desc>
    <defs>
        <path d="M-0.00042827772,34.6303562 C-0.0930881548,53.5483677 15.2185331,68.9602634 34.2008982,69.0554158 C39.4559798,69.0725987 44.6409508,67.8533408 49.3339641,65.4966575 C49.3581118,65.4869538 49.3770815,65.4676194 49.386274,65.4433418 C49.3954665,65.4190643 49.3940425,65.3920603 49.3823473,65.3688767 C49.3557164,65.3253353 49.3004893,65.3087196 49.2541317,65.3303014 C45.6640344,66.7515342 41.8340966,67.4745781 37.9711617,67.4603836 C20.6602452,67.3449192 6.71978125,53.2676972 6.83171257,36.0154521 C6.72112738,18.7647402 20.6617792,4.69002696 37.9711617,4.57654795 C49.8219101,4.58366015 60.634223,11.3157526 65.837485,21.9270137 C65.837485,21.9270137 65.8822395,22.0234521 65.9584431,21.9945205 C66.0346467,21.965589 65.993521,21.8739726 65.993521,21.8739726 C60.8822321,8.81711466 48.2639238,0.216536496 34.2008982,0.204273973 C15.2182531,0.298579205 -0.093757449,15.7108667 -0.00042827772,34.6291507" id="path-1"></path>
        <linearGradient x1="1970.2%" y1="2621.8%" x2="1975.1%" y2="2621.8%" id="linearGradient-3">
            <stop stop-color="#FFFFFF" offset="0%"></stop>
            <stop stop-color="#4D9AD5" offset="100%"></stop>
        </linearGradient>
        <path d="M38.5493413,53.6540274 C37.5512968,53.2256592 36.6472162,52.606416 35.8882635,51.8313425 C35.1248002,51.048461 34.5184169,50.1274451 34.1017126,49.1178082 C33.6685978,48.0741907 33.4486014,46.954989 33.4544679,45.8256438 C33.4487328,44.6955305 33.668718,43.5755661 34.1017126,42.5310685 C34.5171044,41.5193122 35.1236062,40.5964793 35.8882635,39.8127123 C36.6483252,39.0398672 37.5521884,38.4220013 38.5493413,37.9936438 C39.5658676,37.5487454 40.6650862,37.3224177 41.7752934,37.3292668 C42.8854684,37.3227426 43.9846197,37.5490564 45.0012455,37.9936438 C45.9970795,38.4243806 46.9005094,39.0419501 47.6623234,39.8127123 C48.4237777,40.5971715 49.0291688,41.5183363 49.4464551,42.5274521 C49.8822265,43.5712331 50.1035087,44.6915184 50.0973446,45.8220274 C50.1036115,46.9517658 49.8823191,48.0712832 49.4464551,49.1141918 C49.0281568,50.122417 48.4228749,51.0430067 47.6623234,51.827726 C46.9016318,52.600739 45.9979829,53.2196864 45.0012455,53.650411 C43.9836636,54.0920025 42.8851549,54.318184 41.7752934,54.314679 C40.6654001,54.3185 39.5668268,54.0923052 38.5493413,53.650411 M37.4328982,35.3174795 C36.1026123,35.8981358 34.8969041,36.7285469 33.8815689,37.7633973 C32.8602297,38.8097264 32.0475147,40.0398009 31.4865988,41.388274 C30.9009956,42.7931023 30.6044301,44.3008267 30.614491,45.8220274 C30.6046817,47.3412536 30.9012531,48.8469584 31.4865988,50.2497534 C32.0474501,51.599334 32.8601456,52.8306063 33.8815689,53.8782466 C34.8950564,54.913325 36.0997106,55.7434494 37.4292695,56.3229589 C38.7981319,56.9195374 40.2776775,57.2222471 41.7716647,57.2113973 C43.2636697,57.221941 44.7411789,56.9192263 46.108012,56.3229589 C47.4400351,55.7459502 48.6463355,54.9155407 49.6593413,53.8782466 C50.6817601,52.8321323 51.4935175,51.6004151 52.0506826,50.2497534 C52.6387665,48.8476673 52.9366344,47.3416468 52.9264192,45.8220274 C52.9368842,44.3004341 52.6390225,42.7923945 52.0506826,41.388274 C51.4934558,40.0387172 50.6816782,38.808197 49.6593413,37.7633973 C48.645456,36.7271407 47.4393727,35.8968807 46.108012,35.3186849 C44.7414276,34.7212443 43.2639225,34.4172983 41.7716647,34.4264046 C40.2774177,34.4169201 38.7978612,34.7208642 37.4292695,35.3186849" id="path-4"></path>
        <linearGradient x1="5694.1%" y1="8748.7%" x2="5708.6%" y2="8748.7%" id="linearGradient-6">
            <stop stop-color="#FFFFFF" offset="0%"></stop>
            <stop stop-color="#00408A" offset="100%"></stop>
        </linearGradient>
        <path d="M62.8788503,53.6913973 C61.879233,53.2658736 60.9746241,52.6462687 60.2177725,51.8687123 C59.4535253,51.0867234 58.848118,50.164909 58.4348503,49.1539726 C57.9986064,48.1111789 57.7772987,46.9915839 57.7839439,45.8618082 C57.7778909,44.7320884 57.9991757,43.6126097 58.4348503,42.5696438 C58.8488722,41.559102 59.4541899,40.637424 60.2177725,39.8549041 C60.976339,39.0793736 61.8805162,38.4600644 62.8788503,38.0322192 C63.8945007,37.5885754 64.9922669,37.3622923 66.1011737,37.3678947 C67.2100446,37.3626499 68.3077371,37.5889179 69.323497,38.0322192 C70.321329,38.4609709 71.2253391,39.0801656 71.9845749,39.8549041 C72.7471234,40.6382491 73.3523026,41.5597162 73.767497,42.5696438 C74.2031716,43.6126097 74.4244564,44.7320884 74.4184049,45.8618082 C74.4250816,46.991587 74.2037726,48.1111885 73.767497,49.1539726 C73.3529136,50.1642204 72.7476623,51.0857972 71.9845749,51.8687123 C71.2270981,52.6455308 70.3226471,53.2650276 69.323497,53.6913973 C68.3082107,54.1361785 67.210199,54.3625123 66.1011737,54.3557856 C64.9921122,54.3628748 63.8940254,54.1365256 62.8788503,53.6913973 M61.7624072,35.3681096 C60.4331928,35.946623 59.2285746,36.7754946 58.2147066,37.8092055 C57.1935126,38.8570292 56.3808476,40.0882552 55.8197365,41.4376986 C55.2332468,42.8409928 54.9366358,44.3477185 54.9476287,45.8678356 L54.9476287,64.5527671 L57.786515,64.5527671 L57.786515,52.8596164 C58.6624011,54.2147715 59.8996521,55.300061 61.3596168,55.993863 C62.8150945,56.792827 64.4434779,57.2276034 66.1048024,57.2608219 C67.5982351,57.2701933 69.0769323,56.9662564 70.4447784,56.3687671 C71.7747733,55.7881273 72.9804124,54.9581731 73.9961078,53.9240548 C75.016828,52.8775009 75.8283786,51.6469157 76.3874491,50.2979726 C76.9743222,48.8935273 77.2709387,47.385543 77.2595569,45.8642192 C77.270583,44.344099 76.9739707,42.8373667 76.3874491,41.4340822 C75.8275787,40.0848452 75.01614,38.8536117 73.9961078,37.805589 C72.9803654,36.7724455 71.7746809,35.9436878 70.4447784,35.3644932 C69.0762248,34.7696192 67.597834,34.4669771 66.1048024,34.4758549 C64.6117673,34.4669415 63.1333692,34.769585 61.7648263,35.3644932" id="path-7"></path>
        <linearGradient x1="5585.9%" y1="6357.7%" x2="5600.3%" y2="6357.7%" id="linearGradient-9">
            <stop stop-color="#FFFFFF" offset="0%"></stop>
            <stop stop-color="#00408A" offset="100%"></stop>
        </linearGradient>
        <path d="M84.2473054,39.8127123 C85.0085146,39.0412306 85.9120934,38.4235592 86.9083832,37.9936438 C87.924998,37.5490219 89.0241568,37.3227066 90.1343353,37.3294247 C91.2434004,37.32213 92.3414947,37.5484807 93.3566587,37.9936438 C94.3536768,38.4222449 95.2574953,39.0400802 96.0177365,39.8127123 C96.6415102,40.476734 97.1614094,41.2305717 97.5599521,42.0488767 L82.6736407,42.0488767 C83.0767863,41.2237651 83.61059,40.4687167 84.2545629,39.8127123 M85.7967784,35.3174795 C84.4636088,35.8967992 83.2552783,36.7273191 82.2381916,37.7633973 C81.2179679,38.8098887 80.4064733,40.03998 79.8468503,41.388274 C79.2585104,42.7923945 78.9606487,44.3004341 78.9711138,45.8220274 C78.9608986,47.3416468 79.2587664,48.8476673 79.8468503,50.2497534 C80.4064087,51.5991549 81.217884,52.830444 82.2381916,53.8782466 C83.2526385,54.916162 84.4595246,55.7480467 85.7919401,56.3277808 C87.1598144,56.9247884 88.6386651,57.2275246 90.1319162,57.2162192 C91.6258396,57.2264215 93.1052515,56.9237392 94.4743114,56.3277808 C95.8038851,55.7482979 97.0085441,54.9181702 98.022012,53.8830685 C99.0416175,52.8385693 99.8472862,51.6061165 100.394,50.2545753 L100.514958,49.9278904 L97.3918204,49.9278904 C97.0265236,50.6265619 96.5612062,51.2685693 96.010479,51.8337534 C95.2513443,52.6086114 94.347309,53.2278234 93.3494012,53.6564384 C92.333229,54.0984482 91.2358133,54.3246591 90.1270778,54.3206575 C89.0172164,54.3242114 87.9187076,54.0980299 86.9011257,53.6564384 C85.9039411,53.2265192 85.0001452,52.6074711 84.2400479,51.8337534 C83.4786715,51.0499334 82.8736381,50.1290974 82.4571257,49.1202192 C82.0204327,48.0774813 81.7983164,46.9579577 81.8039521,45.8280548 C81.8039521,45.5483836 81.8233054,45.260274 81.8487066,44.9589041 L101.238287,44.9589041 C101.159131,43.7310751 100.870758,42.5256449 100.385533,41.3943014 C99.8412567,40.0422089 99.0376085,38.8088854 98.0195928,37.7633973 C97.0052425,36.7293375 95.8007994,35.8993586 94.4718922,35.3186849 C93.1030805,34.7215531 91.6236727,34.4176395 90.129497,34.4266301 C88.6359927,34.4165367 87.1571461,34.7205043 85.789521,35.3186849" id="path-10"></path>
        <linearGradient x1="5585.9%" y1="6357.7%" x2="5600.3%" y2="6357.7%" id="linearGradient-12">
            <stop stop-color="#FFFFFF" offset="0%"></stop>
            <stop stop-color="#00408A" offset="100%"></stop>
        </linearGradient>
        <path d="M110.174671,36.314411 C108.836325,36.8982675 107.624165,37.7350196 106.605198,38.778411 C106.423014,38.9751087 106.273191,39.1992843 106.161281,39.4426301 L106.161281,35.5055342 L103.361102,35.5055342 L103.399808,56.2180822 L106.199988,56.2180822 L106.199988,46.8153425 C106.195929,45.6850459 106.417125,44.5651976 106.850743,43.5207671 C107.26731,42.5123473 107.872812,41.5922406 108.634874,40.8096438 C109.394049,40.0348337 110.298075,39.4156286 111.295952,38.9869589 C112.312189,38.5451516 113.409561,38.3189496 114.518275,38.3227397 L114.518275,35.429589 C113.025102,35.4190779 111.546416,35.7217804 110.178299,36.3180274" id="path-13"></path>
        <linearGradient x1="5585.9%" y1="6357.7%" x2="5600.3%" y2="6357.7%" id="linearGradient-15">
            <stop stop-color="#FFFFFF" offset="0%"></stop>
            <stop stop-color="#00408A" offset="100%"></stop>
        </linearGradient>
        <path d="M123.551425,34.6412055 C122.941519,34.7725754 122.349202,34.9748742 121.786647,35.2439452 C121.242181,35.4987166 120.730809,35.8185051 120.263784,36.196274 C119.829218,36.5370509 119.45756,36.9506897 119.165485,37.4186301 L119.165485,35.5127671 L116.326599,35.5127671 L116.326599,56.2253151 L119.20782,56.2253151 L119.166695,43.7907945 C119.169933,42.9769024 119.343366,42.172619 119.675928,41.4292603 C120.003384,40.6713845 120.463314,39.9775016 121.034287,39.3799452 C121.602108,38.7833816 122.27699,38.2980513 123.024048,37.9490411 C123.770134,37.5918424 124.587683,37.4076211 125.415389,37.4101918 C126.239741,37.4085939 127.055389,37.5781495 127.810359,37.9080548 C128.555062,38.2311017 129.229626,38.69539 129.796491,39.2750685 C130.366524,39.8626024 130.820736,40.551629 131.135497,41.3063014 C131.46212,42.094654 131.626647,42.9403238 131.619329,43.7932055 L131.661665,56.2192877 L134.581593,56.2192877 L134.539257,43.7907945 C134.545114,42.5488172 134.298224,41.3185518 133.813509,40.1743562 C133.352741,39.0650366 132.685396,38.0526884 131.846731,37.1907945 C131.016178,36.3423516 130.030921,35.6595109 128.943737,35.1788493 C127.834354,34.682428 126.63146,34.4276232 125.415389,34.4314095 C124.788031,34.4319475 124.162739,34.5031208 123.551425,34.6436164" id="path-16"></path>
        <linearGradient x1="6489.7%" y1="9217.7%" x2="6507.4%" y2="9217.7%" id="linearGradient-18">
            <stop stop-color="#FFFFFF" offset="0%"></stop>
            <stop stop-color="#00408A" offset="100%"></stop>
        </linearGradient>
        <path d="M137.477329,56.2192877 L140.316216,56.2192877 L140.316216,35.5067397 L137.477329,35.5067397 L137.477329,56.2192877 Z M137.719246,27.7193425 C137.394866,28.0516523 137.220185,28.5012355 137.235413,28.9646027 C137.222704,29.4264672 137.397089,29.8739861 137.719246,30.2062466 C138.036829,30.5345585 138.478702,30.7140353 138.936084,30.7004932 C139.393247,30.7128335 139.834652,30.5335469 140.152922,30.2062466 C140.475314,29.8741361 140.649739,29.4265146 140.636754,28.9646027 C140.652264,28.5011878 140.477542,28.0514983 140.152922,27.7193425 C139.835025,27.3910889 139.393711,27.2105279 138.936084,27.2214795 C138.478207,27.2091791 138.036369,27.3899547 137.719246,27.7193425 L137.719246,27.7193425 Z" id="path-19"></path>
        <linearGradient x1="34140.2%" y1="6653.8%" x2="34234.6%" y2="6653.8%" id="linearGradient-21">
            <stop stop-color="#FFFFFF" offset="0%"></stop>
            <stop stop-color="#00408A" offset="100%"></stop>
        </linearGradient>
        <path d="M149.369928,35.3210959 C148.040059,35.9008864 146.83441,36.7300288 145.818599,37.7633973 C144.799337,38.8106578 143.98797,40.0405553 143.427257,41.388274 C142.842388,42.7932444 142.546643,44.3009819 142.557569,45.8220274 C142.54673,47.3411137 142.842487,48.846864 143.427257,50.2497534 C143.987879,51.5985945 144.799229,52.8296947 145.818599,53.8782466 C146.833296,54.913545 148.039179,55.7436676 149.369928,56.3229589 C150.738889,56.919227 152.218368,57.221923 153.712323,57.2113973 C155.205479,57.2217285 156.684128,56.9190336 158.052299,56.3229589 C159.381643,55.7449723 160.585385,54.914627 161.596371,53.8782466 C162.618203,52.8348034 163.425244,51.6021368 163.971988,50.2497534 L164.092946,49.9230685 L160.969808,49.9230685 C160.605699,50.6215551 160.141606,51.2635603 159.592096,51.8289315 C158.831168,52.6016642 157.927577,53.2205717 156.931018,53.6516164 C155.914685,54.0931207 154.817377,54.3193093 153.708695,54.3158356 C152.598061,54.3193031 151.49878,54.0931323 150.480323,53.6516164 C149.485573,53.2218004 148.584533,52.6026705 147.827713,51.8289315 C147.063089,51.0462496 146.455479,50.1252415 146.037533,49.1153973 C145.607085,48.0711002 145.38838,46.9521952 145.394036,45.8232329 C145.388475,44.6934987 145.60717,43.5738236 146.037533,42.5286575 C146.454549,41.517966 147.06226,40.5963956 147.827713,39.8139178 C148.585634,39.042397 149.486459,38.4246424 150.480323,37.9948493 C151.497827,37.5503442 152.597748,37.3240416 153.708695,37.3306301 C154.817691,37.3240235 155.915643,37.5503449 156.931018,37.9948493 C157.926706,38.4258494 158.830088,39.0433864 159.592096,39.8139178 C160.128735,40.3635866 160.57748,40.9921383 160.922635,41.677589 L164.086898,41.677589 L163.96594,41.388274 C163.420942,40.0374853 162.615957,38.80605 161.596371,37.7633973 C160.584508,36.7280495 159.380982,35.8978529 158.052299,35.3186849 C156.684365,34.7214713 155.205728,34.4175466 153.712323,34.4264224 C152.218116,34.4173162 150.738641,34.7212435 149.369928,35.3186849" id="path-22"></path>
        <linearGradient x1="5379.5%" y1="8748.7%" x2="5394.4%" y2="8748.7%" id="linearGradient-24">
            <stop stop-color="#FFFFFF" offset="0%"></stop>
            <stop stop-color="#00408A" offset="100%"></stop>
        </linearGradient>
        <path d="M181.185533,35.5067397 L181.185533,46.899726 C181.195027,47.7516345 181.030407,48.5965526 180.701701,49.3830137 C180.394374,50.1338722 179.942338,50.8174085 179.371162,51.3949589 C178.798249,51.963261 178.123284,52.4192092 177.381401,52.7390685 C176.614801,53.0750789 175.785145,53.2443927 174.947725,53.235726 C174.11763,53.2453111 173.295271,53.0758868 172.53703,52.7390685 C171.803916,52.4156701 171.137117,51.9599747 170.570251,51.3949589 C169.993971,50.8191009 169.53767,50.1353313 169.227617,49.3830137 C168.901879,48.5956622 168.737377,47.751353 168.743784,46.899726 L168.743784,46.8575342 L168.705078,35.5067397 L165.781521,35.5067397 L165.823856,46.8575342 L165.823856,46.899726 C165.817995,48.1381957 166.064915,49.3649172 166.549605,50.5053151 C167.016044,51.6051754 167.682887,52.6094057 168.516383,53.4671781 C169.349125,54.3121152 170.333912,54.9934033 171.419377,55.4755068 C172.528839,55.9714177 173.731795,56.2254137 174.947725,56.2205633 C176.164796,56.2251507 177.368881,55.9711777 178.479701,55.4755068 C179.566241,54.9953058 180.551366,54.3137835 181.382695,53.4671781 C182.216638,52.6129383 182.878893,51.607579 183.333749,50.5053151 C183.807475,49.3622711 184.047231,48.1364065 184.038934,46.899726 L184.038934,35.5067397 L181.185533,35.5067397 Z" id="path-25"></path>
        <linearGradient x1="6220%" y1="9779.5%" x2="6237.7%" y2="9779.5%" id="linearGradient-27">
            <stop stop-color="#FFFFFF" offset="0%"></stop>
            <stop stop-color="#00408A" offset="100%"></stop>
        </linearGradient>
        <path d="M190.782347,34.9907945 C189.935215,35.3313069 189.156677,35.8213478 188.484144,36.4373699 C187.859615,37.0157299 187.35711,37.7124257 187.006036,38.4866849 C186.651975,39.2785572 186.526318,40.153088 186.643162,41.0121644 C186.737175,42.0721575 187.147508,43.0798148 187.821293,43.9053151 C188.441397,44.6598656 189.23408,45.2551521 190.132802,45.6412055 C191.078989,46.047086 192.055197,46.3795802 193.052731,46.635726 C193.958458,46.8573714 194.841916,47.1612156 195.692036,47.5434521 C196.329152,47.8225035 196.881144,48.2640963 197.292311,48.8236712 C197.69025,49.4820821 197.86735,50.2497266 197.797916,51.0152329 C197.754188,51.9040418 197.366603,52.7413922 196.716551,53.3514521 C195.88818,54.0581273 194.812549,54.4088088 193.725257,54.3266849 C192.715319,54.3953228 191.709652,54.1420144 190.853713,53.6033973 C190.191685,53.1923867 189.655034,52.6087828 189.30182,51.915726 C189.014278,51.2920884 188.868085,50.6129895 188.873629,49.9266849 L186.034743,49.9266849 C185.982793,50.9873585 186.184704,52.0451374 186.623808,53.0127123 C187.029321,53.8614156 187.60239,54.6199112 188.308754,55.2428493 C189.022452,55.8719555 189.84785,56.3625716 190.742431,56.6894247 C191.634253,57.0308727 192.581197,57.2069545 193.536563,57.2090084 C194.465415,57.2110237 195.389187,57.0724196 196.276263,56.7979178 C197.113586,56.5387384 197.896774,56.1302965 198.587772,55.5924384 C199.25168,55.0669378 199.791418,54.4022701 200.168695,53.645589 C200.571696,52.8341249 200.774872,51.9386349 200.761389,51.0333151 C200.800882,49.9112829 200.54792,48.7982024 200.027174,47.8026301 C199.530069,46.9372397 198.828322,46.2060078 197.982982,45.6725479 C197.103377,45.1046681 196.154663,44.650959 195.15982,44.322411 C194.161513,43.9953242 193.249489,43.6778813 192.423749,43.3700822 C191.719535,43.1281858 191.050489,42.7945942 190.433988,42.3779726 C189.926285,42.0116721 189.583839,41.460765 189.480838,40.8446027 C189.34972,40.0879712 189.567405,39.3127176 190.073533,38.7338082 C190.508983,38.1385704 191.105019,37.6787412 191.792347,37.4077808 C192.351421,37.2007963 192.941483,37.0891341 193.537772,37.0774795 C194.328967,37.0718971 195.104877,37.2946282 195.771868,37.7187945 C196.444415,38.1412703 196.935433,38.797751 197.149581,39.5607671 L200.188048,39.5607671 C200.093862,39.0370095 199.909726,38.5333694 199.643737,38.072 C199.29651,37.4442931 198.866514,36.8657465 198.36521,36.3517808 C197.790732,35.7651432 197.108714,35.2937279 196.356096,34.9630685 C195.465081,34.586698 194.504073,34.4030369 193.536563,34.4242192 C192.589641,34.4260026 191.652694,34.6170197 190.781138,34.9859726" id="path-28"></path>
        <linearGradient x1="6220%" y1="9779.5%" x2="6237.7%" y2="9779.5%" id="linearGradient-30">
            <stop stop-color="#FFFFFF" offset="0%"></stop>
            <stop stop-color="#00408A" offset="100%"></stop>
        </linearGradient>
    </defs>
    <g id="Artboard" stroke="none" stroke-width="1" fill="none" fill-rule="evenodd">
        <g id="Group" transform="translate(0.000000, 8.000000)">
            <path d="M54.1638204,75.0910685 C54.4063273,74.504443 54.759449,73.9695998 55.2040599,73.5155068 C55.6436193,73.0634375 56.1685752,72.7024994 56.7486946,72.4534795 C57.3339763,72.1961158 57.966892,72.0638841 58.6066108,72.0653036 C59.2497974,72.0643838 59.8848942,72.2081971 60.4645269,72.4860274 C61.0441965,72.7577719 61.5683248,73.1342081 62.0103713,73.596274 C62.2336514,73.8327893 62.4360013,74.0880956 62.6151617,74.3593425 L62.6151617,74.4581918 C62.6151617,77.7590691 59.9301677,80.4349601 56.6180599,80.4349601 C55.6259938,80.4355945 54.6492838,80.1907952 53.7755449,79.7225205 L53.7852216,77.0210411 C53.7805793,76.3595765 53.9084713,75.7038427 54.1614012,75.092274" id="Path_1" fill="#FFBD15" fill-rule="nonzero"></path>
            <path d="M151.178251,75.0910685 C151.421889,74.5050393 151.774877,73.9703984 152.218491,73.5155068 C152.658666,73.0641631 153.183468,72.7033308 153.763126,72.4534795 C154.348407,72.1961158 154.981323,72.0638841 155.621042,72.0653036 C156.26427,72.0640091 156.89945,72.2078412 157.478958,72.4860274 C158.05913,72.7569214 158.583407,73.1334645 159.024802,73.596274 C159.249113,73.8319017 159.451537,74.0873022 159.629593,74.3593425 L159.629593,74.4581918 C159.629593,76.043329 158.997757,77.5635431 157.873082,78.6844043 C156.748408,79.8052656 155.223021,80.4349601 153.632491,80.4349601 C152.640425,80.4355945 151.663715,80.1907952 150.789976,79.7225205 L150.799653,77.0210411 C150.795043,76.3595795 150.922934,75.703852 151.175832,75.092274" id="Path_2" fill="#FFBD15" fill-rule="nonzero"></path>
            <path d="M52.5962036,78.433863 C52.5873545,77.4008413 52.7932759,76.3771882 53.200994,75.4273973 C53.5916766,74.5199179 54.1547974,73.6963166 54.8593293,73.0019726 C55.5653419,72.3092011 56.3953138,71.7543553 57.3063114,71.366137 C58.2587392,70.9571184 59.2859383,70.7494198 60.323006,70.7561644 C61.3600737,70.7494198 62.3872728,70.9571184 63.3397006,71.366137 C64.2475191,71.7529595 65.0733737,72.3080713 65.7733772,73.0019726 C66.4697418,73.700273 67.0278238,74.5231066 67.4184072,75.4273973 C67.8263269,76.3771258 68.0322569,77.4008215 68.0231976,78.433863 L68.0231976,85.5148493 L64.7391856,85.5148493 L64.7391856,84.7228493 C63.4524513,85.6416268 61.9045674,86.1261292 60.3217964,86.1055342 C59.2317698,86.1211905 58.1495248,85.9203919 57.1381796,85.5148493 C56.2211531,85.1434088 55.3921895,84.5849755 54.704503,83.8753973 C54.028194,83.1727029 53.4975502,82.3440025 53.1429341,81.4367123 C52.7712731,80.4780039 52.5845506,79.4579891 52.5925749,78.4302466 M55.8765868,78.4302466 C55.8744261,79.0175944 55.9951286,79.5989432 56.230994,80.1372055 C56.459173,80.6573615 56.7823791,81.1307163 57.1841437,81.5331507 C57.5879924,81.9353731 58.0655432,82.2566167 58.5908862,82.4794521 C59.1329752,82.7149322 59.7183608,82.8352253 60.3097006,82.8327061 C60.8970208,82.8353585 61.4793626,82.7252606 62.0248862,82.5083836 C62.5553967,82.2996383 63.0389372,81.9877959 63.4473533,81.5910137 C63.8570019,81.1949466 64.1802474,80.7189042 64.3968743,80.1926575 C64.6294283,79.6347733 64.7454895,79.0355166 64.737976,78.4314521 C64.741899,77.843929 64.6211216,77.2622192 64.3835689,76.7244932 C64.1567369,76.2037656 63.8347615,75.7295936 63.4340479,75.326137 C63.0271885,74.9268039 62.5487974,74.6070497 62.0236766,74.3834521 C61.4828259,74.1480919 60.8986481,74.0277931 60.308491,74.0302095 C59.7171619,74.0277847 59.1317979,74.1480733 58.5896766,74.3834521 C58.0652376,74.6063275 57.5879086,74.9261947 57.1829341,75.326137 C56.781183,75.7295023 56.4579989,76.2036423 56.2297844,76.7244932 C55.993919,77.2627554 55.8732165,77.8441042 55.8753487,78.4314521" id="Path_3" fill="#FFFFFF" fill-rule="nonzero"></path>
            <path d="M72.4417964,78.433863 C72.4380192,79.0213717 72.5587904,79.6030514 72.7962036,80.1408219 C73.0221014,80.660759 73.3432901,81.1341631 73.7433054,81.5367671 C74.1463851,81.9382399 74.6225977,82.2594117 75.1464192,82.4830685 C75.6864478,82.7183375 76.2698181,82.8386397 76.8591856,82.836274 C77.5505204,82.8462625 78.2358597,82.7072744 78.8682994,82.4288219 C79.4601119,82.1672421 79.9696836,81.7506351 80.3427784,81.2233425 L84.0259521,81.2233425 C83.6968452,82.017645 83.2521935,82.7593324 82.7062994,83.4245479 C82.2184205,84.0181918 81.6405406,84.5322902 80.9935329,84.948274 C80.3824735,85.3389579 79.7145891,85.6333432 79.0134491,85.8210411 C78.3111185,86.0100018 77.5866571,86.1048637 76.8591856,86.1031233 C75.8237965,86.112211 74.7977905,85.9069667 73.8461198,85.5003836 C72.9365574,85.1128202 72.1084539,84.5578518 71.4051856,83.8645479 C70.7047665,83.1695804 70.1461245,82.3459211 69.7601557,81.4391233 C69.3538382,80.4888994 69.147976,79.4655406 69.1553653,78.4326575 C69.147976,77.3997745 69.3538382,76.3764156 69.7601557,75.4261918 C70.1460705,74.5193647 70.7047192,73.6956957 71.4051856,73.0007671 C72.108325,72.3073063 72.9364602,71.7523167 73.8461198,71.3649315 C74.7972682,70.9558998 75.8232877,70.7481899 76.8591856,70.7549589 C77.5705269,70.7566022 78.2788419,70.847322 78.967485,71.0249863 C79.6787227,71.205619 80.3573745,71.4955998 80.979018,71.8844932 C81.6315654,72.2981675 82.2175816,72.8078214 82.7171856,73.3961644 C83.2760864,74.0586282 83.7252546,74.8057887 84.0477246,75.6094247 L80.3391497,75.6094247 C79.9550555,75.0690242 79.4248443,74.6484673 78.8102395,74.3967123 C78.1883601,74.1510299 77.5244797,74.0282026 76.8555569,74.0350685 C76.2661893,74.0327028 75.6828191,74.153005 75.1427904,74.388274 C74.6198796,74.6119804 74.1438893,74.9317755 73.7396766,75.3309589 C73.3398287,75.7346191 73.0186826,76.2087779 72.7925749,76.7293151 C72.5551617,77.2670856 72.4343905,77.8487653 72.4381677,78.436274" id="Path_4" fill="#FFFFFF" fill-rule="nonzero"></path>
            <path d="M88.3296407,78.433863 C88.3261226,79.0209753 88.445596,79.6023569 88.6804192,80.1408219 C88.9070906,80.6609229 89.2291028,81.1343315 89.6299401,81.5367671 C90.032466,81.938908 90.508816,82.2601724 91.0330539,82.4830685 C91.5718439,82.7182179 92.1540065,82.838526 92.7421916,82.836274 C93.4343254,82.8464585 94.1204947,82.7074694 94.7537246,82.4288219 C95.3438918,82.166177 95.8520291,81.7497178 96.2245749,81.2233425 L99.9077485,81.2233425 C99.5782204,82.0169156 99.1344862,82.7584319 98.590515,83.4245479 C98.1014655,84.0184103 97.5223563,84.5325133 96.8741198,84.948274 C96.2630695,85.3389749 95.5951823,85.6333614 94.8940359,85.8210411 C94.1921784,86.0103053 93.4680755,86.1051736 92.740982,86.1031233 C91.7055929,86.112211 90.6795869,85.9069667 89.7279162,85.5003836 C88.818687,85.1128661 87.9909723,84.5578832 87.2881916,83.8645479 C86.588861,83.169437 86.0314359,82.345755 85.6467904,81.4391233 C85.2404729,80.4888994 85.0346107,79.4655406 85.042,78.4326575 C85.0345762,77.3997712 85.2404398,76.3764054 85.6467904,75.4261918 C86.0314088,74.5195454 86.5888373,73.6958586 87.2881916,73.0007671 C87.9909723,72.3074319 88.818687,71.752449 89.7279162,71.3649315 C90.6790646,70.9558998 91.7050841,70.7481899 92.740982,70.7549589 C93.4535205,70.7565667 94.1630402,70.8472846 94.8529102,71.0249863 C95.5636092,71.2049729 96.2415619,71.4950038 96.862024,71.8844932 C97.5157242,72.2980518 98.1029544,72.8076974 98.6038204,73.3961644 C99.1627888,74.0585801 99.6119638,74.805752 99.9343593,75.6094247 L96.2257844,75.6094247 C95.8419067,75.0697926 95.3127077,74.6493734 94.6992934,74.3967123 C94.0766247,74.1508409 93.4119162,74.0280124 92.7421916,74.0350685 C92.1540137,74.0328875 91.5718656,74.1531925 91.0330539,74.388274 C90.509724,74.6112139 90.033597,74.9311008 89.6299401,75.3309589 C89.2292265,75.7344155 88.9072511,76.2085875 88.6804192,76.7293151 C88.445596,77.2677801 88.3261226,77.8491617 88.3296407,78.436274" id="Path_5" fill="#FFFFFF" fill-rule="nonzero"></path>
            <path d="M104.267078,78.6616986 C104.282639,79.2285498 104.417387,79.7858377 104.662611,80.2975342 C104.900343,80.7952393 105.228419,81.2448145 105.630275,81.6235616 C106.030893,82.0061403 106.502019,82.3078335 107.017665,82.512 C107.546496,82.7295724 108.113566,82.8398152 108.685677,82.836274 C109.580646,82.8598426 110.461061,82.6072238 111.206443,82.1129863 C111.899902,81.6387718 112.432948,80.9663187 112.735353,80.1842192 L116.331437,80.1842192 C116.056194,81.1578637 115.627059,82.0815873 115.060168,82.9206575 C114.567519,83.633134 113.953449,84.2540982 113.245796,84.7553973 C112.577824,85.2195027 111.835411,85.5668258 111.050407,85.7824658 C110.281158,85.9977882 109.485901,86.1070288 108.686886,86.1067397 C107.651497,86.1158275 106.625491,85.9105832 105.67382,85.504 C104.763338,85.1187823 103.935211,84.5635232 103.234096,83.8681644 C102.533582,83.1732749 101.974927,82.349596 101.589066,81.4427397 C101.182084,80.4927211 100.976194,79.4692229 100.984275,78.436274 C100.976554,77.4045283 101.18244,76.3822836 101.589066,75.4334247 C101.973973,74.5249857 102.532717,73.6999481 103.234096,73.0043836 C103.936876,72.3110483 104.764591,71.7560655 105.67382,71.3685479 C106.625481,70.9619312 107.651494,70.7566854 108.686886,70.7658082 C109.788409,70.7469946 110.880747,70.9683421 111.887437,71.4143562 C112.798988,71.8241775 113.617183,72.414824 114.292084,73.1502466 C114.960283,73.8838574 115.484249,74.7360431 115.836719,75.6624658 C116.207313,76.6224212 116.403503,77.6404534 116.416108,78.6689315 L104.267078,78.6616986 Z M112.449892,75.8095342 C111.639774,74.5570409 110.20226,73.8523117 108.712287,73.9772055 C107.211037,73.8764542 105.767953,74.5730918 104.916623,75.8095342 L112.449892,75.8095342 Z" id="Path_6" fill="#FFFFFF" fill-rule="nonzero"></path>
            <rect id="Rectangle_1" fill="#FFFFFF" fill-rule="nonzero" x="117.859138" y="65.764274" width="3.28643114" height="19.7541918"></rect>
            <path d="M125.871401,78.6616986 C125.886963,79.2285498 126.021711,79.7858377 126.266934,80.2975342 C126.50557,80.7947031 126.833533,81.244123 127.234599,81.6235616 C127.635781,82.005427 128.106759,82.307026 128.621988,82.512 C129.151693,82.7294836 129.719535,82.8397165 130.292419,82.836274 C131.186302,82.8602008 132.065667,82.6075195 132.809557,82.1129863 C133.503165,81.6380346 134.037195,80.9659348 134.342096,80.1842192 L137.93818,80.1842192 C137.66041,81.1575653 137.230144,82.0810869 136.663281,82.9206575 C136.171724,83.6340321 135.557479,84.2551724 134.84891,84.7553973 C134.18095,85.2195231 133.438533,85.5668479 132.653521,85.7824658 C131.884272,85.9977882 131.089014,86.1070488 130.29,86.1067397 C129.254581,86.1161434 128.22851,85.9108862 127.276934,85.504 C126.365002,85.1194751 125.53556,84.56416 124.833581,83.8681644 C124.135287,83.1722011 123.578007,82.3487327 123.19218,81.4427397 C122.785298,80.4926902 122.579412,79.469213 122.587389,78.436274 C122.579772,77.4045382 122.785654,76.3823145 123.19218,75.4334247 C123.57709,74.5258684 124.134454,73.7010488 124.833581,73.0043836 C125.537141,72.3103107 126.366191,71.7552587 127.276934,71.3685479 C128.2285,70.961628 129.254577,70.7563693 130.29,70.7658082 C131.391465,70.7476159 132.483671,70.9689364 133.490551,71.4143562 C134.402136,71.8241189 135.220342,72.4147734 135.895198,73.1502466 C136.562252,73.8847125 137.086078,74.7366717 137.439832,75.6624658 C137.809312,76.6226118 138.004275,77.6406592 138.015593,78.6689315 L125.871401,78.6616986 Z M134.054216,75.8095342 C133.243727,74.5574557 131.80648,73.8528575 130.316611,73.9772055 C128.815215,73.8757129 127.371783,74.5725194 126.520946,75.8095342 L134.054216,75.8095342 Z" id="Path_7" fill="#FFFFFF" fill-rule="nonzero"></path>
            <path d="M139.548132,71.4107397 L142.832144,71.4107397 L142.832144,72.8199452 C143.542497,72.3366036 144.326235,71.970281 145.153329,71.7350137 C146.084167,71.4725057 147.047852,71.3438277 148.015198,71.3528767 L148.015198,74.6257534 C147.328697,74.6203964 146.646991,74.7400972 146.003665,74.9789589 C145.404217,75.202418 144.848685,75.5288131 144.362263,75.9433425 C143.898293,76.334836 143.517483,76.814768 143.242192,77.3549589 C142.970859,77.8818625 142.830638,78.4660656 142.833353,79.0583014 L142.833353,85.5196712 L139.549341,85.5196712 L139.548132,71.4107397 Z" id="Path_8" fill="#FFFFFF" fill-rule="nonzero"></path>
            <path d="M149.143737,78.433863 C149.134677,77.4008215 149.340607,76.3771258 149.748527,75.4273973 C150.139129,74.5198738 150.70226,73.696258 151.406862,73.0019726 C152.112875,72.3092011 152.942847,71.7543553 153.853844,71.366137 C154.806272,70.9571184 155.833471,70.7494198 156.870539,70.7561644 C157.907607,70.7494198 158.934806,70.9571184 159.887234,71.366137 C160.795066,71.7529337 161.620925,72.3080486 162.32091,73.0019726 C163.017275,73.700273 163.575357,74.5231066 163.96594,75.4273973 C164.37386,76.3771258 164.57979,77.4008215 164.570731,78.433863 L164.570731,85.5148493 L161.289138,85.5148493 L161.289138,84.7228493 C160.002403,85.6416268 158.45452,86.1261292 156.871749,86.1055342 C155.781722,86.1211905 154.699477,85.9203919 153.688132,85.5148493 C152.771122,85.1433773 151.942165,84.5849482 151.254455,83.8753973 C150.578196,83.1726638 150.047559,82.3439738 149.692886,81.4367123 C149.321197,80.4780118 149.134474,79.4579916 149.142527,78.4302466 M152.426539,78.4302466 C152.424165,79.0176157 152.544877,79.5990079 152.780946,80.1372055 C153.008977,80.6574433 153.3322,81.1308239 153.734096,81.5331507 C154.137925,81.9353962 154.615481,82.2566431 155.140838,82.4794521 C155.682927,82.7149322 156.268313,82.8352253 156.859653,82.8327061 C157.446973,82.8353585 158.029315,82.7252606 158.574838,82.5083836 C159.105334,82.2996096 159.588869,81.9877707 159.997305,81.5910137 C160.406954,81.1949466 160.730199,80.7189042 160.946826,80.1926575 C161.179446,79.6347928 161.295509,79.0355227 161.287928,78.4314521 C161.291815,77.8439326 161.171039,77.2622304 160.933521,76.7244932 C160.706689,76.2037656 160.384714,75.7295936 159.984,75.326137 C159.577177,74.9267595 159.098777,74.6069994 158.573629,74.3834521 C158.032778,74.1480919 157.4486,74.0277931 156.858443,74.0302085 C156.26711,74.0277494 155.681739,74.1480395 155.139629,74.3834521 C154.61519,74.6063275 154.137861,74.9261947 153.732886,75.326137 C153.33107,75.7294488 153.007877,76.2036017 152.779737,76.7244932 C152.543667,77.2626907 152.422956,77.8440829 152.425295,78.4314521" id="Path_9" fill="#FFFFFF" fill-rule="nonzero"></path>
            <polygon id="Path_10" fill="#FFFFFF" fill-rule="nonzero" points="165.791198 74.682411 165.791198 71.4095342 167.095126 71.4095342 167.095126 66.3561644 170.381557 66.3561644 170.381557 71.4095342 173.69097 71.4095342 173.69097 74.682411 170.381557 74.682411 170.381557 85.5172603 167.095126 85.5172603 167.095126 74.682411"></polygon>
            <path d="M174.797737,78.433863 C174.788887,77.4008413 174.994809,76.3771882 175.402527,75.4273973 C175.793543,74.5198039 176.357082,73.6961906 177.062072,73.0019726 C177.768084,72.3092011 178.598056,71.7543553 179.509054,71.366137 C180.461482,70.9571184 181.488681,70.7494198 182.525749,70.7561644 C183.562816,70.7494198 184.590015,70.9571184 185.542443,71.366137 C186.450262,71.7529595 187.276116,72.3080713 187.97612,73.0019726 C188.673523,73.6994211 189.231747,74.5224638 189.62115,75.4273973 C190.029069,76.3771258 190.234999,77.4008215 190.22594,78.433863 C190.234999,79.4669046 190.029069,80.4906002 189.62115,81.4403288 C189.231695,82.3452341 188.673477,83.1682676 187.97612,83.8657534 C187.276079,84.5596094 186.450233,85.1147149 185.542443,85.501589 C184.589483,85.9081256 183.562305,86.1133573 182.525749,86.1043288 C181.489192,86.1133573 180.462014,85.9081256 179.509054,85.501589 C178.598084,85.1133205 177.768121,84.5584807 177.062072,83.8657534 C176.357563,83.1713899 175.794446,82.3477935 175.403737,81.4403288 C174.996018,80.4905378 174.790097,79.4668847 174.798946,78.433863 M178.082924,78.433863 C178.080584,79.0212322 178.201296,79.6026244 178.437365,80.1408219 C178.666546,80.6604257 178.989633,81.1336068 179.390515,81.5367671 C179.794933,81.9383002 180.272343,82.2594488 180.797257,82.4830685 C181.339346,82.7185487 181.924732,82.8388417 182.516072,82.8363142 C183.107383,82.8385598 183.692711,82.7182786 184.234886,82.4830685 C184.759393,82.2587032 185.236669,81.9376443 185.641629,81.5367671 C186.04251,81.1336068 186.365598,80.6604257 186.594778,80.1408219 C186.829602,79.6023569 186.949075,79.0209753 186.945632,78.433863 C186.949075,77.8467507 186.829602,77.2653691 186.594778,76.7269041 C186.365494,76.2066424 186.042436,75.7326875 185.641629,75.3285479 C185.23554,74.9299631 184.758484,74.610279 184.234886,74.385863 C183.692679,74.1507538 183.107373,74.030477 182.516072,74.0326194 C181.924739,74.0301604 181.339368,74.1504505 180.797257,74.385863 C180.273249,74.609528 179.796061,74.929301 179.390515,75.3285479 C178.989729,75.7327049 178.666674,76.2066557 178.437365,76.7269041 C178.201296,77.2651017 178.080584,77.8464939 178.082924,78.433863" id="Path_11" fill="#FFFFFF" fill-rule="nonzero"></path>
            <path d="M191.762108,71.4107397 L195.048539,71.4107397 L195.048539,72.8199452 C195.758566,72.3360357 196.5424,71.9696685 197.369725,71.7350137 C198.300563,71.4725057 199.264247,71.3438277 200.231593,71.3528767 L200.231593,74.6257534 C199.545092,74.6203964 198.863386,74.7400972 198.22006,74.9789589 C197.619912,75.200955 197.064135,75.5274947 196.578659,75.9433425 C196.114688,76.334836 195.733878,76.814768 195.458587,77.3549589 C195.187254,77.8818625 195.047033,78.4660656 195.049749,79.0583014 L195.049749,85.5196712 L191.762108,85.5196712 L191.762108,71.4107397 Z" id="Path_12" fill="#FFFFFF" fill-rule="nonzero"></path>
            <g id="Group_2">
                <mask id="mask-2" fill="white">
                    <use xlink:href="#path-1"></use>
                </mask>
                <g id="Path_13"></g>
                <rect id="Rectangle_2" fill="url(#linearGradient-3)" fill-rule="nonzero" mask="url(#mask-2)" x="0" y="0.205479452" width="66.039485" height="68.8509589"></rect>
            </g>
            <path d="M131.135497,41.3075068 C130.820609,40.5529017 130.366412,39.8638976 129.796491,39.276274 C129.228717,38.6976695 128.554377,38.2335351 127.810359,37.9092603 C127.056135,37.5796827 126.241346,37.4101341 125.417808,37.4113698 C124.588933,37.4087811 123.770193,37.5929911 123.022838,37.9502466 C122.276593,38.299057 121.601886,38.7830355 121.033078,39.3775342 C120.743819,39.6836848 120.481957,40.0144405 120.250479,40.3660274 L120.250479,40.4865753 C120.249837,42.5281391 121.06332,44.4862694 122.511835,45.9298731 C123.96035,47.3734767 125.925143,48.1842014 127.973653,48.1835798 C129.250183,48.1863344 130.507152,47.8709822 131.630216,47.2661918 L131.620539,43.7847671 C131.627699,42.9330709 131.463169,42.0886142 131.136707,41.3014795" id="Path_14" fill="#FFBD15" fill-rule="nonzero"></path>
            <mask id="mask-5" fill="white">
                <use xlink:href="#path-4"></use>
            </mask>
            <g id="Path_15"></g>
            <rect id="Rectangle_3" fill="url(#linearGradient-6)" fill-rule="nonzero" mask="url(#mask-5)" x="30.614491" y="34.4290411" width="22.3131377" height="22.7859726"></rect>
            <mask id="mask-8" fill="white">
                <use xlink:href="#path-7"></use>
            </mask>
            <g id="Path_16"></g>
            <rect id="Rectangle_4" fill="url(#linearGradient-9)" fill-rule="nonzero" mask="url(#mask-8)" x="54.9464192" y="34.4736438" width="22.309509" height="30.0851507"></rect>
            <mask id="mask-11" fill="white">
                <use xlink:href="#path-10"></use>
            </mask>
            <g id="Path_17"></g>
            <rect id="Rectangle_5" fill="url(#linearGradient-12)" fill-rule="nonzero" mask="url(#mask-11)" x="78.9711138" y="34.4290411" width="22.2744311" height="22.7859726"></rect>
            <mask id="mask-14" fill="white">
                <use xlink:href="#path-13"></use>
            </mask>
            <g id="Path_18"></g>
            <rect id="Rectangle_6" fill="url(#linearGradient-15)" fill-rule="nonzero" mask="url(#mask-14)" x="103.359892" y="35.4259726" width="11.1547545" height="20.7933151"></rect>
            <mask id="mask-17" fill="white">
                <use xlink:href="#path-16"></use>
            </mask>
            <g id="Path_19"></g>
            <rect id="Rectangle_7" fill="url(#linearGradient-18)" fill-rule="nonzero" mask="url(#mask-17)" x="116.327808" y="34.4290411" width="18.2562036" height="21.7914521"></rect>
            <mask id="mask-20" fill="white">
                <use xlink:href="#path-19"></use>
            </mask>
            <g id="Path_20"></g>
            <rect id="Rectangle_8" fill="url(#linearGradient-21)" fill-rule="nonzero" mask="url(#mask-20)" x="137.232994" y="27.2226849" width="3.4085988" height="28.9966027"></rect>
            <mask id="mask-23" fill="white">
                <use xlink:href="#path-22"></use>
            </mask>
            <g id="Path_21"></g>
            <rect id="Rectangle_9" fill="url(#linearGradient-24)" fill-rule="nonzero" mask="url(#mask-23)" x="142.557569" y="34.4290411" width="21.5365868" height="22.7859726"></rect>
            <mask id="mask-26" fill="white">
                <use xlink:href="#path-25"></use>
            </mask>
            <g id="Path_22"></g>
            <rect id="Rectangle_10" fill="url(#linearGradient-27)" fill-rule="nonzero" mask="url(#mask-26)" x="165.771844" y="35.5067397" width="18.2525749" height="20.7125479"></rect>
            <mask id="mask-29" fill="white">
                <use xlink:href="#path-28"></use>
            </mask>
            <g id="Path_23"></g>
            <rect id="Rectangle_11" fill="url(#linearGradient-30)" fill-rule="nonzero" mask="url(#mask-29)" x="186.008132" y="34.4290411" width="14.7532575" height="22.7859726"></rect>
        </g>
    </g>
</svg>