<?xml version="1.0" encoding="UTF-8"?>
<svg width="488px" height="323px" viewBox="0 0 488 323" version="1.1" xmlns="http://www.w3.org/2000/svg" xmlns:xlink="http://www.w3.org/1999/xlink">
    <!-- Generator: Sketch 55.2 (78181) - https://sketchapp.com -->
    <title>Desktop HD Copy</title>
    <desc>Created with Sketch.</desc>
    <defs>
        <polygon id="path-1" points="0.962785956 0.372588788 56.4171705 0.372588788 56.4171705 104.085956 0.962785956 104.085956"></polygon>
        <polygon id="path-3" points="-425 217.819007 56.4171705 217.819007 56.4171705 -121 -425 -121"></polygon>
    </defs>
    <g id="Welcome" stroke="none" stroke-width="1" fill="none" fill-rule="evenodd">
        <g id="Desktop-HD" transform="translate(-199.000000, -2007.000000)">
            <rect fill="#FFFFFF" x="0" y="0" width="1440" height="4290"></rect>
            <g id="Group-4" transform="translate(202.000000, 2012.000000)">
                <g id="Group-1216" transform="translate(425.000000, 121.000000)">
                    <polygon id="Fill-234" fill="#7A3000" points="21 136 37 136 37 81 21 81"></polygon>
                    <mask id="mask-2" fill="white">
                        <use xlink:href="#path-1"></use>
                    </mask>
                    <g id="Clip-236"></g>
                    <path d="M58.8616764,52.2292722 C58.8616764,23.5896545 45.9004937,0.372588788 29.9122312,0.372588788 C13.9239686,0.372588788 0.962785956,23.5896545 0.962785956,52.2292722 C0.962785956,80.8688899 13.9239686,104.085956 29.9122312,104.085956 C45.9004937,104.085956 58.8616764,80.8688899 58.8616764,52.2292722" id="Fill-235" fill="#8EB700" mask="url(#mask-2)"></path>
                    <mask id="mask-4" fill="white">
                        <use xlink:href="#path-3"></use>
                    </mask>
                    <use id="Clip-304" fill="#FFFFFF" xlink:href="#path-3"></use>
                    <polygon id="Fill-303" fill-opacity="0.35" fill="#FF0000" mask="url(#mask-4)" points="-151.643194 114.230399 -135.867035 114.230399 -135.867035 59.0517694 -151.643194 59.0517694"></polygon>
                    <path d="M-144.455648,4.00635024 C-166.961901,4.00635024 -185.206807,19.5905766 -185.206807,38.8149354 C-185.206807,58.0392942 -166.961901,73.6235206 -144.455648,73.6235206 C-121.949607,73.6235206 -103.704702,58.0392942 -103.704702,38.8149354 C-103.704702,19.5905766 -121.949607,4.00635024 -144.455648,4.00635024 Z" id="Fill-305" fill-opacity="0.35" fill="#FF0000" mask="url(#mask-4)"></path>
                    <path d="M-373.933843,15.8587854 C-377.952363,15.8587854 -381.727631,16.7451084 -385.009404,18.2996578 C-389.944142,14.9804261 -396.170994,13 -402.939439,13 C-412.342966,13 -420.700173,16.8229354 -426,22.7477432 L-426,87.709229 C-423.866678,88.0837037 -421.65771,88.2808051 -419.394711,88.2808051 C-415.24503,88.2808051 -411.277153,87.6178275 -407.626053,86.4113278 C-401.121835,92.2583086 -391.931048,95.9042328 -381.743099,95.9042328 C-366.551548,95.9042328 -353.578288,87.7980966 -348.423183,76.3741767 C-335.686181,75.1363652 -325.790431,65.9013753 -325.790431,54.6908462 C-325.790431,42.6616855 -337.182982,32.9065216 -351.254263,32.8656172 C-352.705719,23.2709941 -362.306093,15.8587854 -373.933843,15.8587854 Z" id="Fill-724" fill="#8EB700" mask="url(#mask-4)"></path>
                    <polygon id="Fill-725" fill="#566E04" mask="url(#mask-4)" points="-395.123106 149.944493 -382.705001 149.944493 -382.705001 53.8931052 -395.123106 53.8931052"></polygon>
                    <polygon id="Fill-726" fill="#566E04" mask="url(#mask-4)" points="-385.876951 88.3771517 -366.781302 72.0660572 -370.82652 68.6107187 -385.876951 81.4664747"></polygon>
                    <polygon id="Fill-727" fill="#566E04" mask="url(#mask-4)" points="-385.524046 75.5485627 -404.619696 59.2374682 -408.664914 62.6928067 -393.614482 75.5485627"></polygon>
                    <path d="M-257.188738,4.71642221 C-273.177001,4.71642221 -286.138184,27.9334879 -286.138184,56.5731056 C-286.138184,85.2127233 -273.177001,108.429789 -257.188738,108.429789 C-241.200264,108.429789 -228.239293,85.2127233 -228.239293,56.5731056 C-228.239293,27.9334879 -241.200264,4.71642221 -257.188738,4.71642221 Z" id="Fill-728" fill="#8EB700" mask="url(#mask-4)"></path>
                    <polygon id="Fill-729" fill="#566E04" mask="url(#mask-4)" points="-261.966973 139.931414 -252.848441 139.931414 -252.848441 65.0272552 -261.966973 65.0272552"></polygon>
                    <polygon id="Fill-135" fill-opacity="0.35" fill="#FF0000" mask="url(#mask-4)" points="-46 114 -28 114 -28 73 -46 73"></polygon>
                    <path d="M-13.7499467,65.2410998 L-17.6707996,60.3284936 L-3.77599296,60.3284936 L-20.6379432,39.2002532 L-23.7266734,35.3304386 L-10.8996971,35.3304386 L-24.1997952,18.6651288 L-37.4998933,2 L-50.7999915,18.6651288 L-64.1000896,35.3304386 L-51.2733266,35.3304386 L-54.3620568,39.2002532 L-71.2237937,60.3284936 L-57.3292004,60.3284936 L-61.2500533,65.2410998 L-85,95 L-37.4998933,95 L10,95 L-13.7499467,65.2410998 Z" id="Fill-136" fill-opacity="0.35" fill="#FF0000" mask="url(#mask-4)"></path>
                    <polygon id="Fill-730" fill="#566E04" mask="url(#mask-4)" points="-257.088789 90.5363446 -236.569442 72.4113376 -240.451292 69.0955448 -257.088789 82.8381668"></polygon>
                    <polygon id="Fill-731" fill="#566E04" mask="url(#mask-4)" points="-258.110275 89.0882372 -270.009458 79.2594091 -273.891308 82.575383 -258.110275 96.5147444"></polygon>
                    <path d="M-282.233195,142.14076 C-282.233195,142.14076 -187.508434,35.7061624 -67.3539551,139.425502 C-67.3539551,139.425502 -193.229925,202.417421 -282.233195,142.14076" id="Fill-732" fill="#0FB9B1" mask="url(#mask-4)"></path>
                    <path d="M-347.225213,87.4939418 C-352.474821,94.0105968 -358.715234,100.299925 -365.932041,105.271261 L-286.891902,105.271261 C-294.106591,100.30083 -300.343402,94.0095109 -305.591951,87.4939418 L-287.206773,87.4939418 C-297.123924,83.2713737 -305.175584,75.5226988 -311.344801,67.5497736 L-293.741079,67.5497736 C-302.555971,63.7965205 -309.601571,56.7005066 -314.862198,49.5999679 L-297.661705,49.5999679 C-316.42871,41.6094863 -326.09244,16.4000491 -326.404556,15.5745397 L-326.404556,15.5528206 C-326.404556,15.5528206 -326.406887,15.5596983 -326.408582,15.5636801 C-326.410277,15.5596983 -326.412608,15.5528206 -326.412608,15.5528206 L-326.412608,15.5745397 C-326.724935,16.4000491 -336.388453,41.6094863 -355.155671,49.5999679 L-337.955178,49.5999679 C-343.215381,56.7005066 -350.261404,63.7965205 -359.076085,67.5497736 L-341.472574,67.5497736 C-347.641791,75.5226988 -355.693239,83.2713737 -365.61039,87.4939418 L-347.225213,87.4939418 Z" id="Fill-766" fill="#8EB700" mask="url(#mask-4)"></path>
                    <polygon id="Fill-767" fill="#566E04" mask="url(#mask-4)" points="-334.763945 125.623912 -318.059914 125.623912 -318.059914 105.271243 -334.763945 105.271243"></polygon>
                    <path d="M-273.604005,-76.3916716 C-275.462504,-85.5645809 -283.474116,-92.4638553 -293.079151,-92.4638553 C-297.034527,-92.4638553 -300.720166,-91.2937352 -303.817382,-89.2767485 C-309.702452,-93.8631127 -317.071398,-96.591945 -325.070721,-96.591945 C-326.517515,-96.591945 -327.94312,-96.5010865 -329.343934,-96.3276951 C-335.599602,-102.344266 -344.054703,-106.036525 -353.36182,-106.036525 C-365.688176,-106.036525 -376.521121,-99.5607742 -382.727419,-89.785158 C-382.851164,-89.7875109 -382.974697,-89.7898639 -383.098865,-89.7898639 C-391.458827,-89.7898639 -398.513538,-84.1327448 -400.738185,-76.3916716 L-273.604005,-76.3916716 Z" id="Fill-768" fill="#0FB9B1" mask="url(#mask-4)"></path>
                    <path d="M37.1670311,-76.1027705 C35.67913,-83.4469259 29.2647547,-88.9708341 21.5745816,-88.9708341 C18.4078652,-88.9708341 15.4570661,-88.033833 12.9773015,-86.4190129 C8.26547336,-90.0910001 2.36557033,-92.2757673 -4.03884604,-92.2757673 C-5.19704421,-92.2757673 -6.33850297,-92.2030081 -7.46004394,-92.0641864 C-12.46852,-96.8813167 -19.2380252,-99.8372954 -26.6896087,-99.8372954 C-36.5584488,-99.8372954 -45.2315859,-94.6527492 -50.2006502,-86.8260663 C-50.2996035,-86.8278762 -50.3987686,-86.8298672 -50.4981457,-86.8298672 C-57.1911581,-86.8298672 -62.8395461,-82.3005159 -64.6207048,-76.1027705 L37.1670311,-76.1027705 Z" id="Fill-769" fill="#0FB9B1" mask="url(#mask-4)"></path>
                    <path d="M-144.705468,-33.8314253 C-147.486754,-37.9734514 -152.295629,-40.9953115 -157.976436,-41.9082405 C-161.16752,-48.8976495 -169.124676,-53.8501626 -178.436666,-53.8501626 C-183.8382,-53.8501626 -188.783109,-52.1830355 -192.607112,-49.4196335 C-194.310295,-49.7273217 -196.075774,-49.8905774 -197.886174,-49.8905774 C-198.161209,-49.8905774 -198.43476,-49.8855096 -198.707677,-49.8780889 C-202.121458,-53.8183078 -207.601604,-56.3733868 -213.780992,-56.3733868 C-222.28843,-56.3733868 -229.470276,-51.5310985 -231.758703,-44.8973409 C-238.92169,-44.1002475 -244.7451,-39.6637456 -246.604871,-33.8314253 L-144.705468,-33.8314253 Z" id="Fill-770" fill="#0FB9B1" mask="url(#mask-4)"></path>
                    <path d="M-161.646627,75.6646879 C-161.646627,56.4363473 -179.895347,40.848863 -202.406261,40.848863 C-224.917176,40.848863 -243.165895,56.4363473 -243.165895,75.6646879 C-243.165895,94.8930285 -224.917176,110.480513 -202.406261,110.480513 C-179.895347,110.480513 -161.646627,94.8930285 -161.646627,75.6646879" id="Fill-804" fill-opacity="0.35" fill="#FF0000" mask="url(#mask-4)"></path>
                    <polygon id="Fill-805" fill-opacity="0.35" fill="#FF0000" mask="url(#mask-4)" points="-207.201321 156.005588 -197.611329 156.005588 -197.611329 79.4880577 -207.201321 79.4880577"></polygon>
                    <polygon id="Fill-806" fill-opacity="0.35" fill="#FF0000" mask="url(#mask-4)" points="-202.872655 102.053096 -222.454807 84.7557702 -218.750311 81.5914685 -202.872655 94.7062256"></polygon>
                    <polygon id="Fill-807" fill-opacity="0.35" fill="#FF0000" mask="url(#mask-4)" points="-199.713631 106.369708 -180.131479 89.0725632 -183.835975 85.9080806 -199.713631 99.0230186"></polygon>
                    <path d="M-71.8491879,41.0978552 C-71.8491879,18.3405119 -100.798633,-24.8384593 -100.798633,-24.8384593 C-100.798633,-24.8384593 -129.747866,18.3405119 -129.747866,41.0978552 C-129.747866,63.8548365 -116.786896,82.303278 -100.798633,82.303278 C-84.8101586,82.303278 -71.8491879,63.8548365 -71.8491879,41.0978552" id="Fill-841" fill-opacity="0.350060096" fill="#FF0000" mask="url(#mask-4)"></path>
                    <polygon id="Fill-842" fill-opacity="0.35" fill="#FF0000" mask="url(#mask-4)" points="-103.827366 132.550698 -94.2373748 132.550698 -94.2373748 35.0139002 -103.827366 35.0139002"></polygon>
                    <polygon id="Fill-843" fill-opacity="0.35" fill="#FF0000" mask="url(#mask-4)" points="-97.7098716 69.1986022 -101.671392 66.4753807 -85.132848 48.9214068 -81.1711152 51.6446284"></polygon>
                    <polygon id="Fill-844" fill-opacity="0.35" fill="#FF0000" mask="url(#mask-4)" points="-102.917144 49.1934032 -109.167939 41.3435532 -113.372711 43.7865975 -102.917144 56.916558"></polygon>
                    <path d="M55.1457164,141.515237 C-14.5875184,80.2615754 -77.3692333,104.952468 -134.106323,130.220909 C-182.568208,151.803607 -223.398614,137.873657 -238.466209,131.037187 C-246.988055,127.170814 -255.941313,124.028412 -265.240377,121.827174 C-335.736845,105.139071 -395.49487,132.347939 -426.271454,145.692195 L-426.271454,189.970337 L55.1457164,189.970337 L55.1457164,141.515237 Z" id="Fill-845" fill="#FFFFFF" mask="url(#mask-4)"></path>
                    <path d="M56.4172764,145.375708 C-13.3161702,84.1222268 -76.0978851,108.813119 -132.834763,134.081379 C-181.29686,155.664258 -222.127054,141.734127 -237.194649,134.897839 C-245.716707,131.031465 -254.669965,127.888882 -263.969029,125.687645 C-334.465284,108.999542 -394.223522,136.20859 -424.999894,149.552666 L-424.999894,193.830808 L56.4172764,193.830808 L56.4172764,145.375708 Z" id="Fill-1102" fill="#0FB9B1" mask="url(#mask-4)"></path>
                </g>
                <rect id="Rectangle" stroke="#0FB9B1" stroke-width="3" x="1.5" y="1.5" width="479" height="312"></rect>
                <path d="M46.5953495,303 L46.5953495,280.695182 L52.7363335,280.695182 C59.6091446,280.695182 62.7273645,284.163407 62.7273645,291.545315 C62.7273645,298.354489 59.9591489,303 52.7363335,303 L46.5953495,303 Z M49.7772065,283.463398 L49.7772065,300.231784 L52.6090592,300.231784 C57.4136633,300.231784 59.4182332,297.65448 59.4182332,291.895319 C59.4182332,285.595242 56.8727476,283.463398 52.4817849,283.463398 L49.7772065,283.463398 Z M80.0366665,303 L67.4046942,303 L67.4046942,280.695182 L79.6230251,280.695182 L79.6230251,283.463398 L70.5865512,283.463398 L70.5865512,290.304391 L78.4775566,290.304391 L78.4775566,293.072606 L70.5865512,293.072606 L70.5865512,300.231784 L80.0366665,300.231784 L80.0366665,303 Z M87.7367605,303 L84.5230849,303 L84.5230849,280.695182 L96.6777786,280.695182 L96.6777786,283.463398 L87.7367605,283.463398 L87.7367605,291.004399 L95.5641287,291.004399 L95.5641287,293.772615 L87.7367605,293.772615 L87.7367605,303 Z M102.43694,291.704408 C102.43694,298.290852 104.632421,300.518152 108.037008,300.518152 C111.377958,300.518152 113.477984,298.449944 113.477984,291.958956 C113.477984,285.404331 111.314321,283.177031 107.877915,283.177031 C104.632421,283.177031 102.43694,285.181601 102.43694,291.704408 Z M116.787115,291.736226 C116.787115,299.945417 113.223435,303.318186 107.814278,303.318186 C102.43694,303.318186 99.1596271,300.231784 99.1596271,291.958956 C99.1596271,283.781584 102.723307,280.376997 108.100645,280.376997 C113.446165,280.376997 116.787115,283.495217 116.787115,291.736226 Z M121.496263,280.695182 L127.57361,280.695182 C132.282758,280.695182 135.082793,282.540659 135.082793,287.058896 C135.082793,290.781669 132.791856,292.818058 130.150914,293.168062 L130.150914,293.295336 C131.105471,293.740796 131.900936,294.504442 132.91913,296.286282 L136.832814,303 L132.982767,303 L129.037264,295.840822 C128.337256,294.568079 127.446336,294.027163 125.982682,294.027163 L124.67812,294.027163 L124.67812,303 L121.496263,303 L121.496263,280.695182 Z M124.67812,283.463398 L124.67812,291.354403 L127.255424,291.354403 C130.182733,291.354403 131.80548,290.145298 131.80548,287.345264 C131.80548,284.545229 130.150914,283.463398 127.12815,283.463398 L124.67812,283.463398 Z M153.219378,303 L140.587405,303 L140.587405,280.695182 L152.805736,280.695182 L152.805736,283.463398 L143.769262,283.463398 L143.769262,290.304391 L151.660268,290.304391 L151.660268,293.072606 L143.769262,293.072606 L143.769262,300.231784 L153.219378,300.231784 L153.219378,303 Z M163.305864,300.486333 C166.010443,300.486333 167.41046,299.054497 167.41046,297.240839 C167.41046,292.627146 156.910332,293.581703 156.910332,286.549799 C156.910332,283.049757 159.869459,280.376997 164.06951,280.376997 C166.933181,280.376997 169.033207,281.458828 170.115038,282.477022 L168.142287,284.927052 C167.18773,284.099769 165.85135,283.240668 163.84678,283.240668 C161.524024,283.240668 160.155826,284.545229 160.155826,286.327069 C160.155826,291.004399 170.687772,290.081661 170.687772,297.049927 C170.687772,300.390877 167.983194,303.318186 162.95586,303.318186 C159.296724,303.318186 156.878513,301.918169 155.733045,300.868156 L157.61034,298.227215 C158.787627,299.21359 160.601286,300.486333 163.305864,300.486333 Z M177.528765,303 L177.528765,283.463398 L171.674148,283.463398 L171.674148,280.695182 L186.565239,280.695182 L186.565239,283.463398 L180.742441,283.463398 L180.742441,303 L177.528765,303 Z M193.628961,287.822542 L191.688029,294.122619 L198.465384,294.122619 L196.55627,287.917998 C195.951717,285.849791 195.538076,284.481592 195.124434,282.922482 L194.99716,282.922482 C194.615337,284.417955 194.169877,285.913428 193.628961,287.822542 Z M192.706223,280.695182 L197.479008,280.695182 L204.606368,303 L201.201781,303 L199.324485,296.890835 L190.828927,296.890835 L188.919813,303 L185.6425,303 L192.706223,280.695182 Z M209.506428,303 L209.506428,283.463398 L203.651811,283.463398 L203.651811,280.695182 L218.542902,280.695182 L218.542902,283.463398 L212.720103,283.463398 L212.720103,303 L209.506428,303 Z M222.011126,303 L222.011126,280.695182 L225.224801,280.695182 L225.224801,303 L222.011126,303 Z M233.465811,291.704408 C233.465811,298.290852 235.661292,300.518152 239.065879,300.518152 C242.406829,300.518152 244.506855,298.449944 244.506855,291.958956 C244.506855,285.404331 242.343192,283.177031 238.906787,283.177031 C235.661292,283.177031 233.465811,285.181601 233.465811,291.704408 Z M247.815986,291.736226 C247.815986,299.945417 244.252306,303.318186 238.843149,303.318186 C233.465811,303.318186 230.188498,300.231784 230.188498,291.958956 C230.188498,283.781584 233.752178,280.376997 239.129517,280.376997 C244.475036,280.376997 247.815986,283.495217 247.815986,291.736226 Z M255.643354,284.608867 L255.452443,284.608867 C255.547899,286.613436 255.611536,288.363458 255.611536,291.068036 L255.611536,303 L252.525135,303 L252.525135,280.695182 L256.757004,280.695182 L263.407085,293.263518 C264.329824,295.045358 265.348018,296.98629 266.143482,298.799949 L266.334394,298.799949 C266.238938,296.445375 266.238938,294.0908 266.238938,292.08623 L266.238938,280.695182 L269.261702,280.695182 L269.261702,303 L265.125288,303 L258.316114,290.177116 C257.361557,288.363458 256.534274,286.549799 255.643354,284.608867 Z M284.598253,303 L284.598253,280.695182 L290.739237,280.695182 C297.612048,280.695182 300.730268,284.163407 300.730268,291.545315 C300.730268,298.354489 297.962052,303 290.739237,303 L284.598253,303 Z M287.78011,283.463398 L287.78011,300.231784 L290.611963,300.231784 C295.416567,300.231784 297.421137,297.65448 297.421137,291.895319 C297.421137,285.595242 294.875651,283.463398 290.484689,283.463398 L287.78011,283.463398 Z M318.03957,303 L305.407598,303 L305.407598,280.695182 L317.625929,280.695182 L317.625929,283.463398 L308.589455,283.463398 L308.589455,290.304391 L316.48046,290.304391 L316.48046,293.072606 L308.589455,293.072606 L308.589455,300.231784 L318.03957,300.231784 L318.03957,303 Z M325.771483,303 L325.771483,283.463398 L319.916866,283.463398 L319.916866,280.695182 L334.807957,280.695182 L334.807957,283.463398 L328.985158,283.463398 L328.985158,303 L325.771483,303 Z M350.621786,303 L337.989814,303 L337.989814,280.695182 L350.208144,280.695182 L350.208144,283.463398 L341.171671,283.463398 L341.171671,290.304391 L349.062676,290.304391 L349.062676,293.072606 L341.171671,293.072606 L341.171671,300.231784 L350.621786,300.231784 L350.621786,303 Z M354.026373,292.022593 C354.026373,284.799778 357.240048,280.376997 363.349214,280.376997 C367.040168,280.376997 368.885645,281.808832 369.585654,282.445204 L367.517446,284.863415 C366.658345,284.036132 365.417421,283.208849 363.094665,283.208849 C359.43553,283.208849 357.303686,285.881609 357.303686,291.799863 C357.303686,297.399932 359.371893,300.454514 363.381032,300.454514 C365.576514,300.454514 366.849257,299.722687 367.612902,298.959042 L369.394742,301.21816 C368.440185,302.236354 366.371978,303.318186 362.99921,303.318186 C356.667314,303.318186 354.026373,298.831767 354.026373,292.022593 Z M376.649376,303 L376.649376,283.463398 L370.794759,283.463398 L370.794759,280.695182 L385.68585,280.695182 L385.68585,283.463398 L379.863052,283.463398 L379.863052,303 L376.649376,303 Z M389.154074,303 L389.154074,280.695182 L392.36775,280.695182 L392.36775,303 L389.154074,303 Z M400.608759,291.704408 C400.608759,298.290852 402.804241,300.518152 406.208828,300.518152 C409.549777,300.518152 411.649803,298.449944 411.649803,291.958956 C411.649803,285.404331 409.48614,283.177031 406.049735,283.177031 C402.804241,283.177031 400.608759,285.181601 400.608759,291.704408 Z M414.958934,291.736226 C414.958934,299.945417 411.395255,303.318186 405.986098,303.318186 C400.608759,303.318186 397.331447,300.231784 397.331447,291.958956 C397.331447,283.781584 400.895126,280.376997 406.272465,280.376997 C411.617985,280.376997 414.958934,283.495217 414.958934,291.736226 Z M422.786303,284.608867 L422.595391,284.608867 C422.690847,286.613436 422.754484,288.363458 422.754484,291.068036 L422.754484,303 L419.668083,303 L419.668083,280.695182 L423.899953,280.695182 L430.550034,293.263518 C431.472772,295.045358 432.490966,296.98629 433.286431,298.799949 L433.477342,298.799949 C433.381886,296.445375 433.381886,294.0908 433.381886,292.08623 L433.381886,280.695182 L436.404651,280.695182 L436.404651,303 L432.268236,303 L425.459062,290.177116 C424.504505,288.363458 423.677223,286.549799 422.786303,284.608867 Z" id="DEFORESTATIONDETECTION" fill="#FFFFFF" fill-rule="nonzero"></path>
            </g>
        </g>
    </g>
</svg>