<?xml version="1.0" encoding="UTF-8"?>
<svg width="488px" height="323px" viewBox="0 0 488 323" version="1.1" xmlns="http://www.w3.org/2000/svg" xmlns:xlink="http://www.w3.org/1999/xlink">
    <!-- Generator: Sketch 55.2 (78181) - https://sketchapp.com -->
    <title>Desktop HD Copy 2</title>
    <desc>Created with Sketch.</desc>
    <defs>
        <polygon id="path-1" points="0.962785956 0.372588788 56.4171705 0.372588788 56.4171705 104.085956 0.962785956 104.085956"></polygon>
        <polygon id="path-3" points="-425 217.819007 56.4171705 217.819007 56.4171705 -121 -425 -121"></polygon>
    </defs>
    <g id="Welcome" stroke="none" stroke-width="1" fill="none" fill-rule="evenodd">
        <g id="Desktop-HD" transform="translate(-199.000000, -2007.000000)">
            <rect fill="#FFFFFF" x="0" y="0" width="1440" height="4290"></rect>
            <g id="Group-4" transform="translate(202.000000, 2012.000000)">
                <g id="Group-1216" transform="translate(425.000000, 121.000000)">
                    <polygon id="Fill-234" fill="#7A3000" points="21 136 37 136 37 81 21 81"></polygon>
                    <mask id="mask-2" fill="white">
                        <use xlink:href="#path-1"></use>
                    </mask>
                    <g id="Clip-236"></g>
                    <path d="M58.8616764,52.2292722 C58.8616764,23.5896545 45.9004937,0.372588788 29.9122312,0.372588788 C13.9239686,0.372588788 0.962785956,23.5896545 0.962785956,52.2292722 C0.962785956,80.8688899 13.9239686,104.085956 29.9122312,104.085956 C45.9004937,104.085956 58.8616764,80.8688899 58.8616764,52.2292722" id="Fill-235" fill="#8EB700" mask="url(#mask-2)"></path>
                    <mask id="mask-4" fill="white">
                        <use xlink:href="#path-3"></use>
                    </mask>
                    <use id="Clip-304" fill="#FFFFFF" xlink:href="#path-3"></use>
                    <polygon id="Fill-303" fill-opacity="0.35" fill="#FF0000" mask="url(#mask-4)" points="-151.643194 114.230399 -135.867035 114.230399 -135.867035 59.0517694 -151.643194 59.0517694"></polygon>
                    <path d="M-144.455648,4.00635024 C-166.961901,4.00635024 -185.206807,19.5905766 -185.206807,38.8149354 C-185.206807,58.0392942 -166.961901,73.6235206 -144.455648,73.6235206 C-121.949607,73.6235206 -103.704702,58.0392942 -103.704702,38.8149354 C-103.704702,19.5905766 -121.949607,4.00635024 -144.455648,4.00635024 Z" id="Fill-305" fill-opacity="0.35" fill="#FF0000" mask="url(#mask-4)"></path>
                    <path d="M-373.933843,15.8587854 C-377.952363,15.8587854 -381.727631,16.7451084 -385.009404,18.2996578 C-389.944142,14.9804261 -396.170994,13 -402.939439,13 C-412.342966,13 -420.700173,16.8229354 -426,22.7477432 L-426,87.709229 C-423.866678,88.0837037 -421.65771,88.2808051 -419.394711,88.2808051 C-415.24503,88.2808051 -411.277153,87.6178275 -407.626053,86.4113278 C-401.121835,92.2583086 -391.931048,95.9042328 -381.743099,95.9042328 C-366.551548,95.9042328 -353.578288,87.7980966 -348.423183,76.3741767 C-335.686181,75.1363652 -325.790431,65.9013753 -325.790431,54.6908462 C-325.790431,42.6616855 -337.182982,32.9065216 -351.254263,32.8656172 C-352.705719,23.2709941 -362.306093,15.8587854 -373.933843,15.8587854 Z" id="Fill-724" fill="#8EB700" mask="url(#mask-4)"></path>
                    <polygon id="Fill-725" fill="#566E04" mask="url(#mask-4)" points="-395.123106 149.944493 -382.705001 149.944493 -382.705001 53.8931052 -395.123106 53.8931052"></polygon>
                    <polygon id="Fill-726" fill="#566E04" mask="url(#mask-4)" points="-385.876951 88.3771517 -366.781302 72.0660572 -370.82652 68.6107187 -385.876951 81.4664747"></polygon>
                    <polygon id="Fill-727" fill="#566E04" mask="url(#mask-4)" points="-385.524046 75.5485627 -404.619696 59.2374682 -408.664914 62.6928067 -393.614482 75.5485627"></polygon>
                    <path d="M-257.188738,4.71642221 C-273.177001,4.71642221 -286.138184,27.9334879 -286.138184,56.5731056 C-286.138184,85.2127233 -273.177001,108.429789 -257.188738,108.429789 C-241.200264,108.429789 -228.239293,85.2127233 -228.239293,56.5731056 C-228.239293,27.9334879 -241.200264,4.71642221 -257.188738,4.71642221 Z" id="Fill-728" fill="#8EB700" mask="url(#mask-4)"></path>
                    <polygon id="Fill-729" fill="#566E04" mask="url(#mask-4)" points="-261.966973 139.931414 -252.848441 139.931414 -252.848441 65.0272552 -261.966973 65.0272552"></polygon>
                    <polygon id="Fill-135" fill-opacity="0.35" fill="#FF0000" mask="url(#mask-4)" points="-46 114 -28 114 -28 73 -46 73"></polygon>
                    <path d="M-13.7499467,65.2410998 L-17.6707996,60.3284936 L-3.77599296,60.3284936 L-20.6379432,39.2002532 L-23.7266734,35.3304386 L-10.8996971,35.3304386 L-24.1997952,18.6651288 L-37.4998933,2 L-50.7999915,18.6651288 L-64.1000896,35.3304386 L-51.2733266,35.3304386 L-54.3620568,39.2002532 L-71.2237937,60.3284936 L-57.3292004,60.3284936 L-61.2500533,65.2410998 L-85,95 L-37.4998933,95 L10,95 L-13.7499467,65.2410998 Z" id="Fill-136" fill-opacity="0.35" fill="#FF0000" mask="url(#mask-4)"></path>
                    <polygon id="Fill-730" fill="#566E04" mask="url(#mask-4)" points="-257.088789 90.5363446 -236.569442 72.4113376 -240.451292 69.0955448 -257.088789 82.8381668"></polygon>
                    <polygon id="Fill-731" fill="#566E04" mask="url(#mask-4)" points="-258.110275 89.0882372 -270.009458 79.2594091 -273.891308 82.575383 -258.110275 96.5147444"></polygon>
                    <path d="M-282.233195,142.14076 C-282.233195,142.14076 -187.508434,35.7061624 -67.3539551,139.425502 C-67.3539551,139.425502 -193.229925,202.417421 -282.233195,142.14076" id="Fill-732" fill="#0FB9B1" mask="url(#mask-4)"></path>
                    <path d="M-347.225213,87.4939418 C-352.474821,94.0105968 -358.715234,100.299925 -365.932041,105.271261 L-286.891902,105.271261 C-294.106591,100.30083 -300.343402,94.0095109 -305.591951,87.4939418 L-287.206773,87.4939418 C-297.123924,83.2713737 -305.175584,75.5226988 -311.344801,67.5497736 L-293.741079,67.5497736 C-302.555971,63.7965205 -309.601571,56.7005066 -314.862198,49.5999679 L-297.661705,49.5999679 C-316.42871,41.6094863 -326.09244,16.4000491 -326.404556,15.5745397 L-326.404556,15.5528206 C-326.404556,15.5528206 -326.406887,15.5596983 -326.408582,15.5636801 C-326.410277,15.5596983 -326.412608,15.5528206 -326.412608,15.5528206 L-326.412608,15.5745397 C-326.724935,16.4000491 -336.388453,41.6094863 -355.155671,49.5999679 L-337.955178,49.5999679 C-343.215381,56.7005066 -350.261404,63.7965205 -359.076085,67.5497736 L-341.472574,67.5497736 C-347.641791,75.5226988 -355.693239,83.2713737 -365.61039,87.4939418 L-347.225213,87.4939418 Z" id="Fill-766" fill="#8EB700" mask="url(#mask-4)"></path>
                    <polygon id="Fill-767" fill="#566E04" mask="url(#mask-4)" points="-334.763945 125.623912 -318.059914 125.623912 -318.059914 105.271243 -334.763945 105.271243"></polygon>
                    <path d="M-273.604005,-76.3916716 C-275.462504,-85.5645809 -283.474116,-92.4638553 -293.079151,-92.4638553 C-297.034527,-92.4638553 -300.720166,-91.2937352 -303.817382,-89.2767485 C-309.702452,-93.8631127 -317.071398,-96.591945 -325.070721,-96.591945 C-326.517515,-96.591945 -327.94312,-96.5010865 -329.343934,-96.3276951 C-335.599602,-102.344266 -344.054703,-106.036525 -353.36182,-106.036525 C-365.688176,-106.036525 -376.521121,-99.5607742 -382.727419,-89.785158 C-382.851164,-89.7875109 -382.974697,-89.7898639 -383.098865,-89.7898639 C-391.458827,-89.7898639 -398.513538,-84.1327448 -400.738185,-76.3916716 L-273.604005,-76.3916716 Z" id="Fill-768" fill="#0FB9B1" mask="url(#mask-4)"></path>
                    <path d="M37.1670311,-76.1027705 C35.67913,-83.4469259 29.2647547,-88.9708341 21.5745816,-88.9708341 C18.4078652,-88.9708341 15.4570661,-88.033833 12.9773015,-86.4190129 C8.26547336,-90.0910001 2.36557033,-92.2757673 -4.03884604,-92.2757673 C-5.19704421,-92.2757673 -6.33850297,-92.2030081 -7.46004394,-92.0641864 C-12.46852,-96.8813167 -19.2380252,-99.8372954 -26.6896087,-99.8372954 C-36.5584488,-99.8372954 -45.2315859,-94.6527492 -50.2006502,-86.8260663 C-50.2996035,-86.8278762 -50.3987686,-86.8298672 -50.4981457,-86.8298672 C-57.1911581,-86.8298672 -62.8395461,-82.3005159 -64.6207048,-76.1027705 L37.1670311,-76.1027705 Z" id="Fill-769" fill="#0FB9B1" mask="url(#mask-4)"></path>
                    <path d="M-144.705468,-33.8314253 C-147.486754,-37.9734514 -152.295629,-40.9953115 -157.976436,-41.9082405 C-161.16752,-48.8976495 -169.124676,-53.8501626 -178.436666,-53.8501626 C-183.8382,-53.8501626 -188.783109,-52.1830355 -192.607112,-49.4196335 C-194.310295,-49.7273217 -196.075774,-49.8905774 -197.886174,-49.8905774 C-198.161209,-49.8905774 -198.43476,-49.8855096 -198.707677,-49.8780889 C-202.121458,-53.8183078 -207.601604,-56.3733868 -213.780992,-56.3733868 C-222.28843,-56.3733868 -229.470276,-51.5310985 -231.758703,-44.8973409 C-238.92169,-44.1002475 -244.7451,-39.6637456 -246.604871,-33.8314253 L-144.705468,-33.8314253 Z" id="Fill-770" fill="#0FB9B1" mask="url(#mask-4)"></path>
                    <path d="M-161.646627,75.6646879 C-161.646627,56.4363473 -179.895347,40.848863 -202.406261,40.848863 C-224.917176,40.848863 -243.165895,56.4363473 -243.165895,75.6646879 C-243.165895,94.8930285 -224.917176,110.480513 -202.406261,110.480513 C-179.895347,110.480513 -161.646627,94.8930285 -161.646627,75.6646879" id="Fill-804" fill-opacity="0.35" fill="#FF0000" mask="url(#mask-4)"></path>
                    <polygon id="Fill-805" fill-opacity="0.35" fill="#FF0000" mask="url(#mask-4)" points="-207.201321 156.005588 -197.611329 156.005588 -197.611329 79.4880577 -207.201321 79.4880577"></polygon>
                    <polygon id="Fill-806" fill-opacity="0.35" fill="#FF0000" mask="url(#mask-4)" points="-202.872655 102.053096 -222.454807 84.7557702 -218.750311 81.5914685 -202.872655 94.7062256"></polygon>
                    <polygon id="Fill-807" fill-opacity="0.35" fill="#FF0000" mask="url(#mask-4)" points="-199.713631 106.369708 -180.131479 89.0725632 -183.835975 85.9080806 -199.713631 99.0230186"></polygon>
                    <path d="M-71.8491879,41.0978552 C-71.8491879,18.3405119 -100.798633,-24.8384593 -100.798633,-24.8384593 C-100.798633,-24.8384593 -129.747866,18.3405119 -129.747866,41.0978552 C-129.747866,63.8548365 -116.786896,82.303278 -100.798633,82.303278 C-84.8101586,82.303278 -71.8491879,63.8548365 -71.8491879,41.0978552" id="Fill-841" fill-opacity="0.350060096" fill="#FF0000" mask="url(#mask-4)"></path>
                    <polygon id="Fill-842" fill-opacity="0.35" fill="#FF0000" mask="url(#mask-4)" points="-103.827366 132.550698 -94.2373748 132.550698 -94.2373748 35.0139002 -103.827366 35.0139002"></polygon>
                    <polygon id="Fill-843" fill-opacity="0.35" fill="#FF0000" mask="url(#mask-4)" points="-97.7098716 69.1986022 -101.671392 66.4753807 -85.132848 48.9214068 -81.1711152 51.6446284"></polygon>
                    <polygon id="Fill-844" fill-opacity="0.35" fill="#FF0000" mask="url(#mask-4)" points="-102.917144 49.1934032 -109.167939 41.3435532 -113.372711 43.7865975 -102.917144 56.916558"></polygon>
                    <path d="M55.1457164,141.515237 C-14.5875184,80.2615754 -77.3692333,104.952468 -134.106323,130.220909 C-182.568208,151.803607 -223.398614,137.873657 -238.466209,131.037187 C-246.988055,127.170814 -255.941313,124.028412 -265.240377,121.827174 C-335.736845,105.139071 -395.49487,132.347939 -426.271454,145.692195 L-426.271454,189.970337 L55.1457164,189.970337 L55.1457164,141.515237 Z" id="Fill-845" fill="#FFFFFF" mask="url(#mask-4)"></path>
                    <path d="M56.4172764,145.375708 C-13.3161702,84.1222268 -76.0978851,108.813119 -132.834763,134.081379 C-181.29686,155.664258 -222.127054,141.734127 -237.194649,134.897839 C-245.716707,131.031465 -254.669965,127.888882 -263.969029,125.687645 C-334.465284,108.999542 -394.223522,136.20859 -424.999894,149.552666 L-424.999894,193.830808 L56.4172764,193.830808 L56.4172764,145.375708 Z" id="Fill-1102" fill="#0FB9B1" mask="url(#mask-4)"></path>
                </g>
                <rect id="Rectangle" stroke="#0FB9B1" stroke-width="3" x="1.5" y="1.5" width="479" height="312"></rect>
            </g>
            <path d="M403.23,2313.63 C405.78,2313.63 407.1,2312.28 407.1,2310.57 C407.1,2306.22 397.2,2307.12 397.2,2300.49 C397.2,2297.19 399.99,2294.67 403.95,2294.67 C406.65,2294.67 408.63,2295.69 409.65,2296.65 L407.79,2298.96 C406.89,2298.18 405.63,2297.37 403.74,2297.37 C401.55,2297.37 400.26,2298.6 400.26,2300.28 C400.26,2304.69 410.19,2303.82 410.19,2310.39 C410.19,2313.54 407.64,2316.3 402.9,2316.3 C399.45,2316.3 397.17,2314.98 396.09,2313.99 L397.86,2311.5 C398.97,2312.43 400.68,2313.63 403.23,2313.63 Z M416.64,2316 L416.64,2297.58 L411.12,2297.58 L411.12,2294.97 L425.16,2294.97 L425.16,2297.58 L419.67,2297.58 L419.67,2316 L416.64,2316 Z M428.16,2294.97 L433.89,2294.97 C438.33,2294.97 440.97,2296.71 440.97,2300.97 C440.97,2304.48 438.81,2306.4 436.32,2306.73 L436.32,2306.85 C437.22,2307.27 437.97,2307.99 438.93,2309.67 L442.62,2316 L438.99,2316 L435.27,2309.25 C434.61,2308.05 433.77,2307.54 432.39,2307.54 L431.16,2307.54 L431.16,2316 L428.16,2316 L428.16,2294.97 Z M431.16,2297.58 L431.16,2305.02 L433.59,2305.02 C436.35,2305.02 437.88,2303.88 437.88,2301.24 C437.88,2298.6 436.32,2297.58 433.47,2297.58 L431.16,2297.58 Z M448.41,2305.35 C448.41,2311.56 450.48,2313.66 453.69,2313.66 C456.84,2313.66 458.82,2311.71 458.82,2305.59 C458.82,2299.41 456.78,2297.31 453.54,2297.31 C450.48,2297.31 448.41,2299.2 448.41,2305.35 Z M461.94,2305.38 C461.94,2313.12 458.58,2316.3 453.48,2316.3 C448.41,2316.3 445.32,2313.39 445.32,2305.59 C445.32,2297.88 448.68,2294.67 453.75,2294.67 C458.79,2294.67 461.94,2297.61 461.94,2305.38 Z M448.74,2289.99 C448.74,2289 449.49,2288.25 450.48,2288.25 C451.5,2288.25 452.25,2289 452.25,2289.99 C452.25,2290.95 451.5,2291.73 450.48,2291.73 C449.49,2291.73 448.74,2290.95 448.74,2289.99 Z M455.01,2289.99 C455.01,2289 455.76,2288.25 456.75,2288.25 C457.77,2288.25 458.49,2289 458.49,2289.99 C458.49,2290.95 457.77,2291.73 456.75,2291.73 C455.76,2291.73 455.01,2290.95 455.01,2289.99 Z M476.76,2308.89 L476.91,2308.89 L482.34,2294.97 L487.05,2294.97 L487.05,2316 L484.11,2316 L484.11,2298.54 L483.96,2298.54 C482.07,2303.37 480.09,2308.32 478.2,2313.12 L475.29,2313.12 L469.56,2298.54 L469.38,2298.54 L469.38,2316 L466.53,2316 L466.53,2294.97 L471.33,2294.97 L476.76,2308.89 Z" id="STRÖM" fill="#FFFFFF" fill-rule="nonzero"></path>
        </g>
    </g>
</svg>