<?xml version="1.0" encoding="UTF-8"?>
<svg width="143px" height="70px" viewBox="0 0 143 70" version="1.1" xmlns="http://www.w3.org/2000/svg" xmlns:xlink="http://www.w3.org/1999/xlink">
    <!-- Generator: Sketch 55.2 (78181) - https://sketchapp.com -->
    <title>Artboard</title>
    <desc>Created with Sketch.</desc>
    <defs>
        <linearGradient x1="41.8314954%" y1="49.9994226%" x2="66.3341433%" y2="32.1877255%" id="linearGradient-1">
            <stop stop-color="#5A50C8" offset="0%"></stop>
            <stop stop-color="#5A64D2" offset="100%"></stop>
        </linearGradient>
        <linearGradient x1="25.0003333%" y1="50.0004269%" x2="100.000417%" y2="13.0288843%" id="linearGradient-2">
            <stop stop-color="#00A0FF" offset="0%"></stop>
            <stop stop-color="#00D2FF" offset="100%"></stop>
        </linearGradient>
    </defs>
    <g id="Artboard" stroke="none" stroke-width="1" fill="none" fill-rule="evenodd">
        <g id="dronetag-logo" transform="translate(24.000000, 1.000000)" fill-rule="nonzero">
            <path d="M11.3572475,48.4047321 L11.3572475,64.0628036 L9.65935314,64.0628036 L8.87757096,62.9982321 C8.44541914,63.368183 7.91368317,63.6823795 7.28050165,63.9411295 C6.64732013,64.1998795 5.98869967,64.3295625 5.3040198,64.3295625 C3.66568977,64.3295625 2.42259406,63.7855714 1.57380198,62.6994375 C0.725320132,61.6123795 0.300613861,60.263183 0.300613861,58.6515402 C0.300613861,57.0248036 0.743933993,55.6614375 1.6299538,54.5592857 C2.51566337,53.45775 3.79970957,52.9072902 5.4830231,52.9072902 C5.85467987,52.9072902 6.27194059,52.9667411 6.73356436,53.0847187 C7.19518812,53.2033125 7.63447525,53.3730402 8.05142574,53.5948259 L8.05142574,48.6486964 L11.3572475,48.4047321 Z M6.17514851,61.5784955 C6.45776898,61.5784955 6.77048185,61.5202768 7.11328713,61.401683 C7.45578218,61.2830893 7.76818482,61.1355402 8.05111551,60.9578036 L8.05111551,56.3890179 C7.76818482,56.1672321 7.44833663,55.9861071 7.09064026,55.8456429 C6.73294389,55.7051786 6.39013861,55.6346384 6.06284488,55.6346384 C5.18427063,55.6346384 4.56970297,55.9602321 4.22038284,56.6104955 C3.87044224,57.261375 3.69547195,57.9267321 3.69547195,58.606567 C3.69547195,59.3905179 3.87416502,60.081442 4.23155116,60.6799554 C4.58924752,61.2793929 5.2370099,61.5784955 6.17514851,61.5784955 L6.17514851,61.5784955 Z" id="Shape" fill="#323232"></path>
            <path d="M20.4327459,53.3061964 L21.1025347,55.9232679 C20.5959274,55.9232679 20.0303762,56.0418616 19.4046403,56.277817 C18.7795248,56.5146964 18.1838812,56.8766384 17.6180198,57.364567 L17.6180198,64.0624955 L14.3345347,64.0624955 L14.3345347,53.3277589 L16.0097822,53.3277589 L16.9925941,54.7471875 C17.4390165,54.3775446 17.9750957,54.0448661 18.6008317,53.7488438 C19.2265677,53.4537455 19.8364818,53.3061964 20.4327459,53.3061964" id="Path" fill="#323232"></path>
            <path d="M28.261736,52.9953884 C30.0486667,52.9953884 31.4670429,53.5095 32.5168647,54.5371071 C33.5669967,55.5650223 34.0915974,56.9727455 34.0915974,58.762125 C34.0915974,60.5068393 33.5334917,61.867433 32.4166601,62.8429821 C31.2995182,63.8188393 29.8628383,64.3067679 28.1056898,64.3067679 C26.3783234,64.3067679 25.0043102,63.8117545 23.9845809,62.8208036 C22.9645413,61.8304688 22.4542112,60.4403036 22.4542112,58.6515402 C22.4542112,56.8923482 22.9906007,55.5092679 24.0627591,54.5038393 C25.1349175,53.4984107 26.5340594,52.9953884 28.261736,52.9953884 M28.1500528,61.5784955 C28.9091881,61.5784955 29.5237558,61.3539375 29.9925149,60.9026652 C30.4612739,60.4513929 30.696429,59.7379821 30.696429,58.762125 C30.696429,57.8451027 30.4876436,57.1101295 30.0706931,56.5553571 C29.6537426,56.0008929 29.0655446,55.7239687 28.306099,55.7239687 C27.5466535,55.7239687 26.9469769,55.967625 26.508,56.4555536 C26.0684026,56.9434821 25.8490693,57.6682902 25.8490693,58.6293616 C25.8490693,59.5756473 26.0423432,60.3038437 26.4295116,60.8142589 C26.8169901,61.324058 27.3906073,61.5784955 28.1500528,61.5784955" id="Shape" fill="#323232"></path>
            <path d="M43.014462,52.9069821 C44.503571,52.9069821 45.5645611,53.3320714 46.1977426,54.182558 C46.8303036,55.0327366 47.1470495,56.0862187 47.1470495,57.3423884 L47.1470495,64.0628036 L43.8635644,64.0628036 L43.8635644,57.4757679 C43.8635644,56.8843393 43.7109307,56.4299866 43.4056634,56.1117857 C43.100396,55.7938929 42.6797228,55.6346384 42.1436436,55.6346384 C41.7862574,55.6346384 41.3876106,55.7273571 40.9486337,55.9118705 C40.5090363,56.096692 40.1110099,56.3076964 39.7533135,56.5442679 L39.7533135,64.0624955 L36.4698284,64.0624955 L36.4698284,53.3058884 L38.1674125,53.3058884 L39.0388515,54.3926384 C39.5150561,53.9786384 40.1252805,53.6274777 40.8704554,53.3391562 C41.6150099,53.0511429 42.3294719,52.9069821 43.014462,52.9069821" id="Path" fill="#323232"></path>
            <path d="M55.031571,52.9956964 C56.7291551,52.9956964 57.9871419,53.5501607 58.806462,54.6587812 C59.6254719,55.7680179 60.0349769,57.0839464 60.0349769,58.606567 L60.0349769,59.6711384 L52.9766007,59.6711384 C53.1252013,60.2776607 53.4345017,60.7504955 53.903571,61.090567 C54.3726403,61.4306384 54.9716964,61.6006741 55.70167,61.6006741 C56.1930759,61.6006741 56.6509769,61.5449196 57.0753729,61.4343348 C57.499769,61.323442 57.95767,61.1494018 58.4490759,60.9131384 L59.4098614,63.2197098 C58.8588911,63.6337098 58.1884818,63.9217232 57.3995644,64.0846741 C56.6100264,64.247317 55.9846007,64.3286384 55.5232871,64.3286384 C53.6916832,64.3286384 52.2211881,63.8373214 51.111802,62.8537634 C50.0021056,61.8711295 49.4477228,60.4846607 49.4477228,58.6952812 C49.4477228,56.950875 49.9614653,55.5647143 50.9889505,54.5367991 C52.0161254,53.5095 53.363769,52.9956964 55.031571,52.9956964 M54.9422244,55.7014821 C54.4356172,55.7014821 54.0040858,55.863817 53.6466997,56.1894107 C53.2893135,56.5150045 53.0585017,56.9730536 52.954264,57.5644821 L56.9078482,57.5644821 C56.8036106,57.002933 56.5876898,56.5519688 56.2600858,56.2109732 C55.9321716,55.8715179 55.4928845,55.7014821 54.9422244,55.7014821" id="Shape" fill="#323232"></path>
            <path d="M67.5397756,64.4395312 C66.1995776,64.4395312 65.0939142,64.0994598 64.2227855,63.419317 C63.3516568,62.7394821 62.9160924,61.7414464 62.9160924,60.4252098 L62.9160924,55.9894955 L61.3748647,55.9894955 L61.3748647,53.4611384 L62.9160924,53.4611384 L62.9160924,50.7997098 L66.1772409,50.2671161 L66.1772409,53.4608304 L68.3665413,53.4608304 L69.0813135,55.9891875 L66.1775512,55.9891875 L66.1775512,59.9369732 C66.1775512,60.4547812 66.3118812,60.8795625 66.5796106,61.2122411 C66.8476502,61.5449196 67.2348185,61.711567 67.7411155,61.711567 C67.9346997,61.711567 68.1431749,61.6819955 68.3668515,61.6225446 C68.5902178,61.5637098 68.8135842,61.4820804 69.0369505,61.3785804 L69.9974257,63.6854598 C69.7445875,63.8927679 69.3716898,64.0695804 68.8802838,64.2174375 C68.3882574,64.3659107 67.941835,64.4395312 67.5397756,64.4395312" id="Path" fill="#323232"></path>
            <path d="M75.935868,52.9960045 C77.2906469,52.9960045 78.404066,53.380433 79.2751947,54.1489821 C80.1466337,54.9178393 80.5818878,55.9084821 80.5818878,57.1206027 L80.5818878,64.0628036 L78.9736502,64.0628036 L78.2588779,63.1756607 C77.8866007,63.5012545 77.4283894,63.7741741 76.8848647,63.9959598 C76.3413399,64.2180536 75.7866469,64.3286384 75.2210957,64.3286384 C73.8808977,64.3286384 72.8869175,63.9999643 72.2391551,63.341692 C71.5913927,62.6837277 71.2675116,61.8221518 71.2675116,60.7578884 C71.2675116,59.6344821 71.6506469,58.7839955 72.4178482,58.2076607 C73.1847393,57.6307098 74.1858548,57.3420804 75.4221254,57.3420804 L77.2763762,57.3420804 C77.2462838,56.8840312 77.0865149,56.5214732 76.7961386,56.2559464 C76.5054521,55.9894955 76.1220066,55.8564241 75.645802,55.8564241 C75.183868,55.8564241 74.6701254,55.9232679 74.104264,56.0557232 C73.5384026,56.1891027 73.0469967,56.3517455 72.6300462,56.5436518 L71.7589175,53.9712455 C72.220231,53.7047946 72.8828845,53.4759241 73.7468779,53.2834018 C74.6105611,53.0918036 75.3405347,52.9960045 75.935868,52.9960045 M75.2214059,61.711875 C75.563901,61.711875 75.9135314,61.63425 76.2712277,61.479 C76.6289241,61.32375 76.9711089,61.0988839 77.2987129,60.8028616 L77.2987129,59.4496607 L75.4224356,59.4496607 C74.9902838,59.4496607 74.6552343,59.5753393 74.4172871,59.8266964 C74.1790297,60.0780536 74.0602112,60.3737679 74.0602112,60.7141473 C74.0602112,60.9799821 74.1715842,61.2131652 74.3952607,61.4127723 C74.6180066,61.6123795 74.8934917,61.711875 75.2214059,61.711875" id="Shape" fill="#323232"></path>
            <path d="M93.9460198,53.328375 L93.9460198,64.0628036 C93.9460198,65.4529688 93.480363,66.576067 92.5499802,67.4339464 C91.6189769,68.2915179 90.1931551,68.7203036 88.2725149,68.7203036 C87.8108911,68.7203036 87.1333465,68.6164955 86.239571,68.4098036 C85.3461056,68.2028036 84.5941056,67.8923036 83.9838812,67.4783036 L84.9666931,65.1939107 C85.6513729,65.5195045 86.2321254,65.7523795 86.7089505,65.8931518 C87.1851551,66.033308 87.6840066,66.1035402 88.2051947,66.1035402 C89.0096238,66.1035402 89.6201584,65.9221071 90.0367987,65.5601652 C90.4537492,65.1979152 90.6625347,64.7062902 90.6625347,64.0852902 L90.6625347,63.5973616 C90.2452739,63.8191473 89.7985413,63.9931875 89.3223366,64.118558 C88.8455116,64.2436205 88.3764422,64.3067679 87.9151287,64.3067679 C86.2767987,64.3067679 85.033703,63.7670893 84.1849109,62.6877321 C83.336429,61.608683 82.9117228,60.262875 82.9117228,58.6509241 C82.9117228,57.0251116 83.3506997,55.6608214 84.2295842,54.5595938 C85.1078482,53.458058 86.3884818,52.9072902 88.0714851,52.9072902 C88.6221452,52.9072902 89.2255446,53.0289643 89.8807525,53.2732366 C90.5356502,53.5168929 91.1018218,53.8317054 91.5783366,54.2161339 L92.2707723,53.3289911 L93.9460198,53.3289911 L93.9460198,53.328375 Z M86.2845545,58.6290536 C86.2845545,59.4126964 86.4632475,60.1039286 86.8206337,60.70275 C87.1780198,61.3012634 87.8257822,61.6009821 88.764231,61.6009821 C89.0468515,61.6009821 89.3635974,61.5384509 89.713538,61.4127723 C90.0631683,61.2867857 90.379604,61.142933 90.6631551,60.9799821 L90.6631551,56.3893259 C90.3650231,56.1823259 90.0374191,56.0048973 89.680033,55.8567321 C89.3229571,55.709183 88.9879076,55.6346384 88.6751947,55.6346384 C87.7817294,55.6346384 87.1597162,55.9642366 86.8097756,56.6212768 C86.4592145,57.2798571 86.2845545,57.9489107 86.2845545,58.6290536 L86.2845545,58.6290536 Z" id="Shape" fill="#323232"></path>
            <polygon id="Path" fill="url(#linearGradient-1)" points="23.8561452 5.3776875 36.2653861 26.7190179 40.6861782 19.1170045 32.6967987 5.3776875"></polygon>
            <polygon id="Path" fill="#2D3CB4" points="36.2861716 5.3776875 32.6834587 5.3776875 40.6790429 19.1290179 42.4802442 16.0314107"></polygon>
            <polygon id="Path" fill="url(#linearGradient-2)" points="33.1630759 0.0425089286 51.7769373 32.0548125 70.3907987 0.0425089286"></polygon>
        </g>
    </g>
</svg>