<?xml version="1.0" encoding="UTF-8"?>
<svg width="488px" height="323px" viewBox="0 0 488 323" version="1.1" xmlns="http://www.w3.org/2000/svg" xmlns:xlink="http://www.w3.org/1999/xlink">
    <!-- Generator: Sketch 55.2 (78181) - https://sketchapp.com -->
    <title>Desktop HD</title>
    <desc>Created with Sketch.</desc>
    <g id="Welcome" stroke="none" stroke-width="1" fill="none" fill-rule="evenodd">
        <g id="Desktop-HD" transform="translate(-762.000000, -2007.000000)">
            <rect fill="#FFFFFF" x="0" y="0" width="1440" height="4737"></rect>
            <g id="Group-5" transform="translate(765.000000, 2012.000000)">
                <path d="M481.41717,251.315098 C411.683724,170.809186 348.902009,203.260612 292.165131,236.470876 C243.703034,264.837417 202.87284,246.528941 187.805246,237.543955 C179.283187,232.462351 170.329929,228.332031 161.030865,225.438928 C90.5346096,203.505629 30.7763725,239.266686 0,256.804905 L0,315 L481.41717,315 L481.41717,251.315098 Z" id="Fill-1102" fill="#0FB9B1"></path>
                <rect id="Rectangle-Copy-5" stroke="#0FB9B1" stroke-width="3" x="1.5" y="1.5" width="479" height="312"></rect>
                <path d="M97.565,283.67 C101.255,283.67 102.935,284.99 103.595,285.65 L101.645,287.87 C100.745,287.03 99.455,286.37 97.415,286.37 C94.445,286.37 91.355,287.96 91.355,294.29 C91.355,300.29 93.455,302.72 97.385,302.72 C98.525,302.72 99.875,302.51 100.595,302.06 L100.595,294.26 L103.625,294.26 L103.625,303.41 C102.215,304.52 100.175,305.3 96.755,305.3 C91.145,305.3 88.265,301.73 88.265,294.59 C88.265,287 92.375,283.67 97.565,283.67 Z M108.545,283.97 L114.275,283.97 C118.715,283.97 121.355,285.71 121.355,289.97 C121.355,293.48 119.195,295.4 116.705,295.73 L116.705,295.85 C117.605,296.27 118.355,296.99 119.315,298.67 L123.005,305 L119.375,305 L115.655,298.25 C114.995,297.05 114.155,296.54 112.775,296.54 L111.545,296.54 L111.545,305 L108.545,305 L108.545,283.97 Z M111.545,286.58 L111.545,294.02 L113.975,294.02 C116.735,294.02 118.265,292.88 118.265,290.24 C118.265,287.6 116.705,286.58 113.855,286.58 L111.545,286.58 Z M138.455,305 L126.545,305 L126.545,283.97 L138.065,283.97 L138.065,286.58 L129.545,286.58 L129.545,293.03 L136.985,293.03 L136.985,295.64 L129.545,295.64 L129.545,302.39 L138.455,302.39 L138.455,305 Z M154.595,305 L142.685,305 L142.685,283.97 L154.205,283.97 L154.205,286.58 L145.685,286.58 L145.685,293.03 L153.125,293.03 L153.125,295.64 L145.685,295.64 L145.685,302.39 L154.595,302.39 L154.595,305 Z M161.765,287.66 L161.585,287.66 C161.675,289.55 161.735,291.2 161.735,293.75 L161.735,305 L158.825,305 L158.825,283.97 L162.815,283.97 L169.085,295.82 C169.955,297.5 170.915,299.33 171.665,301.04 L171.845,301.04 C171.755,298.82 171.755,296.6 171.755,294.71 L171.755,283.97 L174.605,283.97 L174.605,305 L170.705,305 L164.285,292.91 C163.385,291.2 162.605,289.49 161.765,287.66 Z M189.065,283.97 L194.795,283.97 C199.235,283.97 201.875,285.71 201.875,289.97 C201.875,293.48 199.715,295.4 197.225,295.73 L197.225,295.85 C198.125,296.27 198.875,296.99 199.835,298.67 L203.525,305 L199.895,305 L196.175,298.25 C195.515,297.05 194.675,296.54 193.295,296.54 L192.065,296.54 L192.065,305 L189.065,305 L189.065,283.97 Z M192.065,286.58 L192.065,294.02 L194.495,294.02 C197.255,294.02 198.785,292.88 198.785,290.24 C198.785,287.6 197.225,286.58 194.375,286.58 L192.065,286.58 Z M209.135,294.35 C209.135,300.56 211.205,302.66 214.415,302.66 C217.565,302.66 219.545,300.71 219.545,294.59 C219.545,288.41 217.505,286.31 214.265,286.31 C211.205,286.31 209.135,288.2 209.135,294.35 Z M222.665,294.38 C222.665,302.12 219.305,305.3 214.205,305.3 C209.135,305.3 206.045,302.39 206.045,294.59 C206.045,286.88 209.405,283.67 214.475,283.67 C219.515,283.67 222.665,286.61 222.665,294.38 Z M229.175,294.35 C229.175,300.56 231.245,302.66 234.455,302.66 C237.605,302.66 239.585,300.71 239.585,294.59 C239.585,288.41 237.545,286.31 234.305,286.31 C231.245,286.31 229.175,288.2 229.175,294.35 Z M242.705,294.38 C242.705,302.12 239.345,305.3 234.245,305.3 C229.175,305.3 226.085,302.39 226.085,294.59 C226.085,286.88 229.445,283.67 234.515,283.67 C239.555,283.67 242.705,286.61 242.705,294.38 Z M250.175,305 L247.145,305 L247.145,283.97 L258.605,283.97 L258.605,286.58 L250.175,286.58 L250.175,293.69 L257.555,293.69 L257.555,296.3 L250.175,296.3 L250.175,305 Z M267.575,302.63 C270.125,302.63 271.445,301.28 271.445,299.57 C271.445,295.22 261.545,296.12 261.545,289.49 C261.545,286.19 264.335,283.67 268.295,283.67 C270.995,283.67 272.975,284.69 273.995,285.65 L272.135,287.96 C271.235,287.18 269.975,286.37 268.085,286.37 C265.895,286.37 264.605,287.6 264.605,289.28 C264.605,293.69 274.535,292.82 274.535,299.39 C274.535,302.54 271.985,305.3 267.245,305.3 C263.795,305.3 261.515,303.98 260.435,302.99 L262.205,300.5 C263.315,301.43 265.025,302.63 267.575,302.63 Z M293.975,283.97 C298.175,283.97 300.935,285.71 300.935,290.06 C300.935,294.17 298.625,296.93 293.405,296.93 L290.615,296.93 L290.615,305 L287.615,305 L287.615,283.97 L293.975,283.97 Z M293.375,286.61 L290.615,286.61 L290.615,294.35 L293.345,294.35 C296.705,294.35 297.815,292.88 297.815,290.45 C297.815,287.72 296.315,286.61 293.375,286.61 Z M304.745,283.97 L310.475,283.97 C314.915,283.97 317.555,285.71 317.555,289.97 C317.555,293.48 315.395,295.4 312.905,295.73 L312.905,295.85 C313.805,296.27 314.555,296.99 315.515,298.67 L319.205,305 L315.575,305 L311.855,298.25 C311.195,297.05 310.355,296.54 308.975,296.54 L307.745,296.54 L307.745,305 L304.745,305 L304.745,283.97 Z M307.745,286.58 L307.745,294.02 L310.175,294.02 C312.935,294.02 314.465,292.88 314.465,290.24 C314.465,287.6 312.905,286.58 310.055,286.58 L307.745,286.58 Z M327.845,290.69 L326.015,296.63 L332.405,296.63 L330.605,290.78 C330.035,288.83 329.645,287.54 329.255,286.07 L329.135,286.07 C328.775,287.48 328.355,288.89 327.845,290.69 Z M326.975,283.97 L331.475,283.97 L338.195,305 L334.985,305 L333.215,299.24 L325.205,299.24 L323.405,305 L320.315,305 L326.975,283.97 Z M349.475,283.67 C353.165,283.67 354.845,284.99 355.505,285.65 L353.555,287.87 C352.655,287.03 351.365,286.37 349.325,286.37 C346.355,286.37 343.265,287.96 343.265,294.29 C343.265,300.29 345.365,302.72 349.295,302.72 C350.435,302.72 351.785,302.51 352.505,302.06 L352.505,294.26 L355.535,294.26 L355.535,303.41 C354.125,304.52 352.085,305.3 348.665,305.3 C343.055,305.3 340.175,301.73 340.175,294.59 C340.175,287 344.285,283.67 349.475,283.67 Z M368.135,302.66 C370.925,302.66 372.635,301.31 372.635,297.8 L372.635,283.97 L375.665,283.97 L375.665,297.41 C375.665,302.84 372.455,305.3 367.745,305.3 C362.825,305.3 360.365,302.42 360.365,297.95 L360.365,283.97 L363.365,283.97 L363.365,297.44 C363.365,300.98 365.105,302.66 368.135,302.66 Z M392.945,305 L381.035,305 L381.035,283.97 L392.555,283.97 L392.555,286.58 L384.035,286.58 L384.035,293.03 L391.475,293.03 L391.475,295.64 L384.035,295.64 L384.035,302.39 L392.945,302.39 L392.945,305 Z" id="GREENROOFSPRAGUE" fill="#FFFFFF" fill-rule="nonzero"></path>
            </g>
            <g id="Group-6" transform="translate(940.000000, 2080.000000)">
                <g id="leaf" transform="translate(117.903259, 49.295425) scale(-1, 1) rotate(-83.000000) translate(-117.903259, -49.295425) translate(73.903259, 9.295425)" fill="#0FB9B1" fill-rule="nonzero">
                    <path d="M81.6878912,1.19990434 C82.033052,0.533017294 82.8505773,0.27389045 83.5139332,0.62088859 C83.8484938,0.795883342 84.0952763,1.10343288 84.1947704,1.46912704 C91.1872523,25.3102924 87.3711425,41.7478336 79.3446659,51.4996779 C76.2372888,55.3007658 72.2573392,58.2855855 67.7475603,60.1970666 C63.5931706,61.9683276 59.0837637,62.736734 54.5808657,62.4405891 C45.9592843,61.834838 38.0890228,57.2057033 34.4365668,48.9121486 C33.5007644,46.7920199 32.8959891,44.5395234 32.6438135,42.2339301 C32.133697,37.6128347 33.0311895,32.9448123 35.2176419,28.8475794 C37.5649586,24.4755151 41.3024029,21.0208644 45.8328245,19.0359079 C48.3607183,17.9162032 51.045757,17.1973412 53.7923518,16.9045616 C74.8293079,14.5787766 81.6655748,1.19990434 81.6878912,1.19990434 Z" id="Path"></path>
                    <path d="M82.8301033,0.0966778712 C83.6862565,0.281402426 84.2858043,-0.0765673541 83.9539918,2.22136742 C83.6221793,4.51930219 83.9482746,2.32420059 83.940825,2.3752686 C83.940825,2.43801426 82.8389741,17.0159243 68.6950892,31.7681279 L68.5634215,31.9075627 C65.2405441,35.3364391 63.3669126,37.2985095 59.449105,40.0181856 L67.3077598,41.5842957 C67.9849823,41.7486545 68.0852189,42.5697577 67.58855,43.8844317 C67.091881,45.1991056 66.3772176,45.3013226 65.7498902,45.2375312 L54.6620824,43.1460089 C45.5190547,48.9713618 34.3862572,52.7943904 29.1095006,59.864116 C26.0090714,64.0180282 24.5483576,65.8578149 23.1489067,69.3820998 C22.1665708,71.8559501 23.5897474,77.829637 24.8671129,79.7603062 C26.1444784,81.6909754 0.475050032,50.1947975 0.00208421498,49.9303926 C-0.089896047,49.8789724 4.41851227,55.3595643 8.25819513,57.3381594 C11.0612898,58.7825988 14.4027502,58.3682481 17.9305944,57.5762044 C21.4584385,56.7841608 26.091899,54.7127349 28.3013072,53.2436743 C30.4763058,51.7974931 39.5662014,46.5674859 43.0478135,45.1522899 C45.3688882,44.2088259 48.8201719,42.2033293 53.4016645,39.1358001 C57.975905,36.2233554 60.0736768,33.9025739 63.8953324,30.0456326 L63.4852933,20.7280525 C63.3926062,20.0334928 63.7823256,19.4407614 65.2310899,19.2618422 C66.6798543,19.082923 67.3296109,20.5678598 67.3313434,20.5967925 L67.5512973,26.2214835 C79.3391962,12.9054586 80.8821008,2.80793237 80.8890307,2.75215845 C80.9061821,2.05167279 81.9739501,-0.0880466834 82.8301033,0.0966778712 Z" id="Path" stroke="#FFFFFF" stroke-width="1.5"></path>
                </g>
                <polyline id="Shape" stroke="#0FB9B1" stroke-width="2.47824438" stroke-linecap="round" stroke-linejoin="round" points="0 106 64.9975581 61.1978904 128.684211 106"></polyline>
            </g>
        </g>
    </g>
</svg>