<?xml version="1.0" encoding="UTF-8"?>
<svg width="143px" height="70px" viewBox="0 0 143 70" version="1.1" xmlns="http://www.w3.org/2000/svg" xmlns:xlink="http://www.w3.org/1999/xlink">
    <!-- Generator: Sketch 55.2 (78181) - https://sketchapp.com -->
    <title>Artboard</title>
    <desc>Created with Sketch.</desc>
    <g id="Artboard" stroke="none" stroke-width="1" fill="none" fill-rule="evenodd">
        <g id="huld" transform="translate(3.000000, 5.000000)" fill="#00173A" fill-rule="nonzero">
            <rect id="Rectangle" x="80.3589123" y="0.427751938" width="8.11905263" height="60.4043411" rx="1.0608"></rect>
            <path d="M135.557895,0.41796531 L129.563544,0.41796531 C128.976824,0.41796531 128.501193,0.893689485 128.501193,1.48031008 L128.501193,24.0310078 C122.448094,19.1628725 114.017139,18.5375426 107.31186,22.4593798 C101.062737,26.2803101 97.2988421,33.1339535 97.2988421,40.7902326 C97.2988421,48.4465116 101.014667,55.2472868 107.23014,59.0537984 C110.197073,60.7828707 113.56866,61.69651 117.002807,61.7020155 C121.309646,61.7550467 125.486947,60.2300691 128.746351,57.4148837 L128.746351,59.8179845 C128.746351,60.4046051 129.221982,60.880155 129.808702,60.880155 L135.577123,60.880155 C136.163843,60.880155 136.639474,60.4046051 136.639474,59.8179845 L136.639474,1.48031008 C136.639474,1.19524217 136.524959,0.922120118 136.321551,0.722362529 C136.118144,0.52260494 135.842964,0.412979931 135.557895,0.41796531 Z M128.347368,48.3696124 C125.943889,51.6626418 122.141533,53.6461427 118.065158,53.7333333 C110.97,53.7333333 105.413088,48.0427907 105.413088,40.7565891 C105.413088,33.3694574 110.676772,27.779845 117.651754,27.779845 C121.861453,27.8083927 125.816791,29.7990564 128.347368,33.1627907 C128.448117,33.2917404 128.502324,33.4509473 128.501366,33.6145736 L128.501366,47.9034109 C128.504845,48.071841 128.450542,48.2364177 128.347368,48.3696124 Z" id="Shape"></path>
            <path d="M69.326807,20.7195349 L63.3276491,20.7195349 C62.7428071,20.7221808 62.2700993,21.1969567 62.2701053,21.7817054 L62.2701053,40.7662016 C62.2701053,46.2548837 61.1789123,48.3936434 60.001193,49.8979845 C58.0376791,52.3806117 55.0330514,53.8116512 51.8677193,53.7717829 C48.9290535,53.8367993 46.1189528,52.568051 44.2245614,50.3209302 C42.1431228,47.7976744 42.0806316,44.591938 42.0085263,40.8815504 L42.0085263,40.6268217 C41.9508421,33.1051163 38.1196491,26.1217054 32.0003158,22.392093 C29.1224614,20.6780105 25.8271832,19.7915465 22.477614,19.8303876 C17.0809143,19.7869057 11.9463713,22.1537168 8.47477193,26.2851163 L8.47477193,1.48031008 C8.47477193,0.893689485 7.99914124,0.417867303 7.41242105,0.417867303 L1.44210526,0.417867303 C1.15621126,0.411670778 0.879782135,0.520715455 0.67532373,0.720616504 C0.470865326,0.920517554 0.355719263,1.19439143 0.355719263,1.48031008 L0.355719263,59.7603101 C0.355719263,60.0462287 0.470865326,60.3201026 0.67532373,60.5200037 C0.879782135,60.7199047 1.15621126,60.8289494 1.44210526,60.8224806 L7.41242105,60.8224806 C7.99914124,60.8224806 8.47477193,60.3469307 8.47477193,59.7603101 L8.47477193,38.8581395 C8.47226583,38.818127 8.47226583,38.777997 8.47477193,38.7379845 C9.24870175,33.4511628 14.5075789,27.7654264 21.655614,27.7654264 C29.3468421,27.7654264 33.9375439,34.3979845 33.9375439,40.8094574 L33.9375439,41.5736434 C34.0529123,45.8607752 34.1923158,50.7054264 37.4755088,54.9204651 C40.7587018,59.1355039 46.1281404,61.7356589 51.8677193,61.7356589 C57.6139475,61.7894933 63.0505409,59.1366439 66.5435439,54.5744186 C69.2114386,51.0899225 70.350702,46.8316279 70.350702,40.3432558 L70.350702,21.7817054 C70.350702,21.2097781 69.8984567,20.740238 69.326807,20.7195349 Z" id="Path"></path>
        </g>
    </g>
</svg>