<?xml version="1.0" encoding="UTF-8"?>
<svg width="739px" height="645px" viewBox="0 0 739 645" version="1.1" xmlns="http://www.w3.org/2000/svg" xmlns:xlink="http://www.w3.org/1999/xlink">
    <!-- Generator: Sketch 55.2 (78181) - https://sketchapp.com -->
    <title>Artboard</title>
    <desc>Created with Sketch.</desc>
    <g id="Artboard" stroke="none" stroke-width="1" fill="none" fill-rule="evenodd">
        <path d="M8.40761083,484.086207 L121.475481,484.086207 L34.2102785,621.844828 L118.576304,621.844828 L118.576304,639.724138 L0,639.724138 L87.265202,501.672414 L8.40761083,501.672414 L8.40761083,484.086207 Z M297.455473,484.086207 L297.455473,639.724138 L278.030993,639.724138 L278.030993,613.051724 C260.442569,634.350681 240.341816,645 217.728129,645 C195.114442,645 176.02839,636.842036 160.4694,620.525862 C144.91041,604.209689 137.131032,584.767354 137.131032,562.198276 C137.131032,539.629197 144.958729,520.284563 160.614359,504.163793 C176.269988,488.043023 195.017806,479.982759 216.858376,479.982759 C241.984695,479.982759 262.375363,490.827478 278.030993,512.517241 L278.030993,484.086207 L297.455473,484.086207 Z M279.190663,562.637931 C279.190663,544.856233 273.29573,529.859256 261.505689,517.646552 C249.715647,505.433847 235.26823,499.327586 218.163005,499.327586 C201.05778,499.327586 186.610364,505.629247 174.820322,518.232759 C163.03028,530.83627 157.135347,545.735546 157.135347,562.931034 C157.135347,580.126523 163.126918,595.025799 175.110239,607.62931 C187.093561,620.232822 201.444339,626.534483 218.163005,626.534483 C234.881671,626.534483 249.23245,620.477072 261.215771,608.362069 C273.199092,596.247066 279.190663,581.005839 279.190663,562.637931 Z M332.825422,440.706897 C332.825422,436.212621 334.419953,432.304614 337.609062,428.982759 C340.798172,425.660903 344.663702,424 349.205767,424 C353.747832,424 357.613362,425.612053 360.802472,428.836207 C363.991581,432.060361 365.586112,435.968368 365.586112,440.560345 C365.586112,445.152322 363.991581,449.060329 360.802472,452.284483 C357.613362,455.508637 353.747832,457.12069 349.205767,457.12069 C344.663702,457.12069 340.798172,455.459787 337.609062,452.137931 C334.419953,448.816075 332.825422,445.005769 332.825422,440.706897 Z M339.203609,484.086207 L359.207925,484.086207 L359.207925,639.724138 L339.203609,639.724138 L339.203609,484.086207 Z M437.485681,615.103448 C437.485681,620.379337 438.162148,623.505742 439.515104,624.482759 C440.86806,625.459775 444.347036,625.948276 449.952138,625.948276 L461.83876,625.948276 L461.83876,642.948276 C453.721026,644.316099 447.342903,645 442.704198,645 C434.006626,645 427.628502,642.850596 423.569635,638.551724 C419.510768,634.252852 417.481365,627.51154 417.481365,618.327586 L417.481365,501.086207 L390.229109,501.086207 L390.229109,484.086207 L417.481365,484.086207 L417.481365,424 L437.485681,424 L437.485681,484.086207 L468.796783,484.086207 L468.796783,501.086207 L437.485681,501.086207 L437.485681,615.103448 Z M490.830522,484.086207 L511.124755,484.086207 L511.124755,506.655172 C516.536577,497.471218 521.803361,490.729907 526.925265,486.431034 C532.047168,482.132162 537.748824,479.982759 544.030404,479.982759 C550.311984,479.982759 556.641788,481.741362 563.020008,485.258621 L552.582974,502.258621 C549.683783,500.499991 546.687998,499.62069 543.595528,499.62069 C537.603867,499.62069 531.95053,502.747095 526.635347,509 C521.320164,515.252905 517.406316,523.313169 514.893684,533.181034 C512.381052,543.0489 511.124755,560.976882 511.124755,586.965517 L511.124755,639.724138 L490.830522,639.724138 L490.830522,484.086207 Z M739,484.086207 L739,639.724138 L719.57552,639.724138 L719.57552,613.051724 C701.987097,634.350681 681.886343,645 659.272656,645 C636.658969,645 617.572917,636.842036 602.013927,620.525862 C586.454937,604.209689 578.675559,584.767354 578.675559,562.198276 C578.675559,539.629197 586.503256,520.284563 602.158886,504.163793 C617.814515,488.043023 636.562334,479.982759 658.402903,479.982759 C683.529222,479.982759 703.91989,490.827478 719.57552,512.517241 L719.57552,484.086207 L739,484.086207 Z M720.73519,562.637931 C720.73519,544.856233 714.840258,529.859256 703.050216,517.646552 C691.260174,505.433847 676.812757,499.327586 659.707532,499.327586 C642.602308,499.327586 628.154891,505.629247 616.364849,518.232759 C604.574807,530.83627 598.679874,545.735546 598.679874,562.931034 C598.679874,580.126523 604.671445,595.025799 616.654767,607.62931 C628.638088,620.232822 642.988866,626.534483 659.707532,626.534483 C676.426198,626.534483 690.776977,620.477072 702.760298,608.362069 C714.743619,596.247066 720.73519,581.005839 720.73519,562.637931 Z" id="zaitra-copy-3" fill="#4B6584" fill-rule="nonzero"></path>
        <rect id="Rectangle-Copy-3" stroke="#4B6584" stroke-width="18.7425" x="202.37125" y="9.37124998" width="335.2575" height="335.2575" rx="64.2599998"></rect>
        <polygon id="Path-3-Copy-10" stroke="#0FB9B1" stroke-width="24.0974999" stroke-linecap="round" stroke-linejoin="round" points="455 98 384.298679 202.811765 455 202.811765 421.572123 249 287 249 357.556486 144.188235 287 144.188235 320.359398 98"></polygon>
    </g>
</svg>