<?xml version="1.0" encoding="UTF-8"?>
<svg width="488px" height="323px" viewBox="0 0 488 323" version="1.1" xmlns="http://www.w3.org/2000/svg" xmlns:xlink="http://www.w3.org/1999/xlink">
    <!-- Generator: Sketch 55.2 (78181) - https://sketchapp.com -->
    <title>Desktop HD</title>
    <desc>Created with Sketch.</desc>
    <g id="Welcome" stroke="none" stroke-width="1" fill="none" fill-rule="evenodd">
        <g id="Desktop-HD" transform="translate(-761.000000, -2008.000000)">
            <rect fill="#FFFFFF" x="0" y="0" width="1440" height="4290"></rect>
            <g id="Group-5" transform="translate(764.000000, 2013.000000)">
                <path d="M481.41717,251.315098 C411.683724,170.809186 348.902009,203.260612 292.165131,236.470876 C243.703034,264.837417 202.87284,246.528941 187.805246,237.543955 C179.283187,232.462351 170.329929,228.332031 161.030865,225.438928 C90.5346096,203.505629 30.7763725,239.266686 -5.68434189e-14,256.804905 L-5.68434189e-14,315 L481.41717,315 L481.41717,251.315098 Z" id="Fill-1102" fill="#0FB9B1"></path>
                <path d="M69.793372,291.704408 C69.793372,298.290852 71.9888533,300.518152 75.3934403,300.518152 C78.7343901,300.518152 80.8344157,298.449944 80.8344157,291.958956 C80.8344157,285.404331 78.670753,283.177031 75.2343474,283.177031 C71.9888533,283.177031 69.793372,285.181601 69.793372,291.704408 Z M84.143547,291.736226 C84.143547,299.945417 80.5798672,303.318186 75.1707103,303.318186 C69.793372,303.318186 66.5160592,300.231784 66.5160592,291.958956 C66.5160592,283.781584 70.0797391,280.376997 75.4570774,280.376997 C80.8025972,280.376997 84.143547,283.495217 84.143547,291.736226 Z M95.5982322,280.695182 C100.052832,280.695182 102.98014,282.540659 102.98014,287.154352 C102.98014,291.513496 100.530111,294.440805 94.9936794,294.440805 L92.0345524,294.440805 L92.0345524,303 L88.8526954,303 L88.8526954,280.695182 L95.5982322,280.695182 Z M94.9618608,283.495217 L92.0345524,283.495217 L92.0345524,291.704408 L94.9300423,291.704408 C98.4937221,291.704408 99.6710092,290.145298 99.6710092,287.567994 C99.6710092,284.672504 98.0800807,283.495217 94.9618608,283.495217 Z M119.653071,303 L107.021099,303 L107.021099,280.695182 L119.23943,280.695182 L119.23943,283.463398 L110.202956,283.463398 L110.202956,290.304391 L118.093961,290.304391 L118.093961,293.072606 L110.202956,293.072606 L110.202956,300.231784 L119.653071,300.231784 L119.653071,303 Z M127.257709,284.608867 L127.066798,284.608867 C127.162254,286.613436 127.225891,288.363458 127.225891,291.068036 L127.225891,303 L124.13949,303 L124.13949,280.695182 L128.371359,280.695182 L135.02144,293.263518 C135.944179,295.045358 136.962373,296.98629 137.757837,298.799949 L137.948749,298.799949 C137.853293,296.445375 137.853293,294.0908 137.853293,292.08623 L137.853293,280.695182 L140.876057,280.695182 L140.876057,303 L136.739643,303 L129.930469,290.177116 C128.975912,288.363458 128.148629,286.549799 127.257709,284.608867 Z M161.812676,300.486333 C164.517255,300.486333 165.917272,299.054497 165.917272,297.240839 C165.917272,292.627146 155.417144,293.581703 155.417144,286.549799 C155.417144,283.049757 158.376271,280.376997 162.576322,280.376997 C165.439993,280.376997 167.540019,281.458828 168.62185,282.477022 L166.649099,284.927052 C165.694542,284.099769 164.358162,283.240668 162.353592,283.240668 C160.030836,283.240668 158.662638,284.545229 158.662638,286.327069 C158.662638,291.004399 169.194585,290.081661 169.194585,297.049927 C169.194585,300.390877 166.490006,303.318186 161.462672,303.318186 C157.803537,303.318186 155.385325,301.918169 154.239857,300.868156 L156.117152,298.227215 C157.294439,299.21359 159.108098,300.486333 161.812676,300.486333 Z M175.717391,291.704408 C175.717391,298.290852 177.912873,300.518152 181.31746,300.518152 C184.65841,300.518152 186.758435,298.449944 186.758435,291.958956 C186.758435,285.404331 184.594773,283.177031 181.158367,283.177031 C177.912873,283.177031 175.717391,285.181601 175.717391,291.704408 Z M190.067567,291.736226 C190.067567,299.945417 186.503887,303.318186 181.09473,303.318186 C175.717391,303.318186 172.440079,300.231784 172.440079,291.958956 C172.440079,283.781584 176.003759,280.376997 181.381097,280.376997 C186.726617,280.376997 190.067567,283.495217 190.067567,291.736226 Z M202.922269,300.518152 C205.881396,300.518152 207.695054,299.086316 207.695054,295.363543 L207.695054,280.695182 L210.90873,280.695182 L210.90873,294.949902 C210.90873,300.709063 207.504143,303.318186 202.508627,303.318186 C197.290382,303.318186 194.681259,300.263603 194.681259,295.522636 L194.681259,280.695182 L197.863116,280.695182 L197.863116,294.98172 C197.863116,298.736312 199.708593,300.518152 202.922269,300.518152 Z M216.604254,280.695182 L222.681601,280.695182 C227.390749,280.695182 230.190783,282.540659 230.190783,287.058896 C230.190783,290.781669 227.899846,292.818058 225.258905,293.168062 L225.258905,293.295336 C226.213462,293.740796 227.008926,294.504442 228.027121,296.286282 L231.940805,303 L228.090758,303 L224.145255,295.840822 C223.445246,294.568079 222.554327,294.027163 221.090672,294.027163 L219.786111,294.027163 L219.786111,303 L216.604254,303 L216.604254,280.695182 Z M219.786111,283.463398 L219.786111,291.354403 L222.363415,291.354403 C225.290724,291.354403 226.913471,290.145298 226.913471,287.345264 C226.913471,284.545229 225.258905,283.463398 222.236141,283.463398 L219.786111,283.463398 Z M234.613565,292.022593 C234.613565,284.799778 237.82724,280.376997 243.936406,280.376997 C247.62736,280.376997 249.472837,281.808832 250.172845,282.445204 L248.104638,284.863415 C247.245537,284.036132 246.004613,283.208849 243.681857,283.208849 C240.022721,283.208849 237.890877,285.881609 237.890877,291.799863 C237.890877,297.399932 239.959084,300.454514 243.968224,300.454514 C246.163705,300.454514 247.436448,299.722687 248.200094,298.959042 L249.981934,301.21816 C249.027377,302.236354 246.95917,303.318186 243.586401,303.318186 C237.254506,303.318186 234.613565,298.831767 234.613565,292.022593 Z M266.623046,303 L253.991074,303 L253.991074,280.695182 L266.209405,280.695182 L266.209405,283.463398 L257.172931,283.463398 L257.172931,290.304391 L265.063936,290.304391 L265.063936,293.072606 L257.172931,293.072606 L257.172931,300.231784 L266.623046,300.231784 L266.623046,303 Z M287.400572,280.695182 C291.855172,280.695182 294.78248,282.540659 294.78248,287.154352 C294.78248,291.513496 292.332451,294.440805 286.796019,294.440805 L283.836892,294.440805 L283.836892,303 L280.655035,303 L280.655035,280.695182 L287.400572,280.695182 Z M286.764201,283.495217 L283.836892,283.495217 L283.836892,291.704408 L286.732382,291.704408 C290.296062,291.704408 291.473349,290.145298 291.473349,287.567994 C291.473349,284.672504 289.882421,283.495217 286.764201,283.495217 Z M298.823439,280.695182 L304.900786,280.695182 C309.609934,280.695182 312.409968,282.540659 312.409968,287.058896 C312.409968,290.781669 310.119031,292.818058 307.47809,293.168062 L307.47809,293.295336 C308.432647,293.740796 309.228111,294.504442 310.246305,296.286282 L314.15999,303 L310.309943,303 L306.36444,295.840822 C305.664431,294.568079 304.773511,294.027163 303.309857,294.027163 L302.005296,294.027163 L302.005296,303 L298.823439,303 L298.823439,280.695182 Z M302.005296,283.463398 L302.005296,291.354403 L304.5826,291.354403 C307.509908,291.354403 309.132655,290.145298 309.132655,287.345264 C309.132655,284.545229 307.47809,283.463398 304.455326,283.463398 L302.005296,283.463398 Z M320.110062,291.704408 C320.110062,298.290852 322.305543,300.518152 325.71013,300.518152 C329.05108,300.518152 331.151106,298.449944 331.151106,291.958956 C331.151106,285.404331 328.987443,283.177031 325.551038,283.177031 C322.305543,283.177031 320.110062,285.181601 320.110062,291.704408 Z M334.460237,291.736226 C334.460237,299.945417 330.896557,303.318186 325.4874,303.318186 C320.110062,303.318186 316.832749,300.231784 316.832749,291.958956 C316.832749,283.781584 320.396429,280.376997 325.773768,280.376997 C331.119287,280.376997 334.460237,283.495217 334.460237,291.736226 Z M335.860254,302.649996 L336.878449,299.754506 C337.578457,300.168147 338.660288,300.54997 339.901213,300.54997 C341.683053,300.54997 342.351243,299.786324 342.351243,298.004485 L342.351243,280.695182 L345.564918,280.695182 L345.564918,298.163577 C345.564918,301.122704 343.910352,303.413641 339.837576,303.413641 C337.833006,303.413641 336.40117,302.936363 335.860254,302.649996 Z M363.956052,303 L351.324079,303 L351.324079,280.695182 L363.54241,280.695182 L363.54241,283.463398 L354.505936,283.463398 L354.505936,290.304391 L362.396942,290.304391 L362.396942,293.072606 L354.505936,293.072606 L354.505936,300.231784 L363.956052,300.231784 L363.956052,303 Z M367.360639,292.022593 C367.360639,284.799778 370.574314,280.376997 376.68348,280.376997 C380.374434,280.376997 382.219911,281.808832 382.919919,282.445204 L380.851712,284.863415 C379.992611,284.036132 378.751687,283.208849 376.428931,283.208849 C372.769795,283.208849 370.637951,285.881609 370.637951,291.799863 C370.637951,297.399932 372.706158,300.454514 376.715298,300.454514 C378.91078,300.454514 380.183522,299.722687 380.947168,298.959042 L382.729008,301.21816 C381.774451,302.236354 379.706244,303.318186 376.333475,303.318186 C370.00158,303.318186 367.360639,298.831767 367.360639,292.022593 Z M389.983642,303 L389.983642,283.463398 L384.129025,283.463398 L384.129025,280.695182 L399.020116,280.695182 L399.020116,283.463398 L393.197317,283.463398 L393.197317,303 L389.983642,303 Z M407.483855,300.486333 C410.188434,300.486333 411.588451,299.054497 411.588451,297.240839 C411.588451,292.627146 401.088323,293.581703 401.088323,286.549799 C401.088323,283.049757 404.04745,280.376997 408.247501,280.376997 C411.111172,280.376997 413.211198,281.458828 414.293029,282.477022 L412.320278,284.927052 C411.365721,284.099769 410.029341,283.240668 408.024771,283.240668 C405.702015,283.240668 404.333817,284.545229 404.333817,286.327069 C404.333817,291.004399 414.865764,290.081661 414.865764,297.049927 C414.865764,300.390877 412.161185,303.318186 407.133851,303.318186 C403.474716,303.318186 401.056504,301.918169 399.911036,300.868156 L401.788331,298.227215 C402.965618,299.21359 404.779277,300.486333 407.483855,300.486333 Z" id="OPENSOURCEPROJECTS" fill="#FFFFFF" fill-rule="nonzero"></path>
                <text id="&lt;/&gt;" font-family="KohinoorTelugu-Bold, Kohinoor Telugu" font-size="59.81857" font-weight="bold" fill="#0FB9B1">
                    <tspan x="195.494984" y="153">&lt;/&gt;</tspan>
                </text>
                <rect id="Rectangle-Copy-5" stroke="#0FB9B1" stroke-width="3" x="1.5" y="1.5" width="479" height="312"></rect>
            </g>
        </g>
    </g>
</svg>