<?xml version="1.0" encoding="UTF-8"?>
<svg width="488px" height="323px" viewBox="0 0 488 323" version="1.1" xmlns="http://www.w3.org/2000/svg" xmlns:xlink="http://www.w3.org/1999/xlink">
    <!-- Generator: Sketch 55.2 (78181) - https://sketchapp.com -->
    <title>Desktop HD</title>
    <desc>Created with Sketch.</desc>
    <g id="Welcome" stroke="none" stroke-width="1" fill="none" fill-rule="evenodd">
        <g id="Desktop-HD" transform="translate(-761.000000, -2008.000000)">
            <rect fill="#FFFFFF" x="0" y="0" width="1440" height="4290"></rect>
            <g id="Group-5" transform="translate(764.000000, 2013.000000)">
                <path d="M481.41717,251.315098 C411.683724,170.809186 348.902009,203.260612 292.165131,236.470876 C243.703034,264.837417 202.87284,246.528941 187.805246,237.543955 C179.283187,232.462351 170.329929,228.332031 161.030865,225.438928 C90.5346096,203.505629 30.7763725,239.266686 0,256.804905 L0,315 L481.41717,315 L481.41717,251.315098 Z" id="Fill-1102" fill="#0FB9B1"></path>
                <path d="M33.9338436,292.704408 C33.9338436,299.290852 36.1293249,301.518152 39.5339119,301.518152 C42.8748617,301.518152 44.9748873,299.449944 44.9748873,292.958956 C44.9748873,286.404331 42.8112246,284.177031 39.374819,284.177031 C36.1293249,284.177031 33.9338436,286.181601 33.9338436,292.704408 Z M48.2840186,292.736226 C48.2840186,300.945417 44.7203388,304.318186 39.3111819,304.318186 C33.9338436,304.318186 30.6565308,301.231784 30.6565308,292.958956 C30.6565308,284.781584 34.2202107,281.376997 39.597549,281.376997 C44.9430688,281.376997 48.2840186,284.495217 48.2840186,292.736226 Z M61.1387209,301.518152 C64.0978479,301.518152 65.9115064,300.086316 65.9115064,296.363543 L65.9115064,281.695182 L69.125182,281.695182 L69.125182,295.949902 C69.125182,301.709063 65.720595,304.318186 60.7250795,304.318186 C55.506834,304.318186 52.8977113,301.263603 52.8977113,296.522636 L52.8977113,281.695182 L56.0795683,281.695182 L56.0795683,295.98172 C56.0795683,299.736312 57.9250453,301.518152 61.1387209,301.518152 Z M74.820706,281.695182 L80.8980529,281.695182 C85.6072012,281.695182 88.4072354,283.540659 88.4072354,288.058896 C88.4072354,291.781669 86.1162984,293.818058 83.475357,294.168062 L83.475357,294.295336 C84.4299141,294.740796 85.2253784,295.504442 86.2435726,297.286282 L90.1572567,304 L86.3072098,304 L82.3617071,296.840822 C81.6616986,295.568079 80.7707786,295.027163 79.3071244,295.027163 L78.002563,295.027163 L78.002563,304 L74.820706,304 L74.820706,281.695182 Z M78.002563,284.463398 L78.002563,292.354403 L80.5798672,292.354403 C83.5071756,292.354403 85.1299227,291.145298 85.1299227,288.345264 C85.1299227,285.545229 83.475357,284.463398 80.4525929,284.463398 L78.002563,284.463398 Z M105.6529,292.704408 C105.6529,299.290852 107.848382,301.518152 111.252969,301.518152 C114.593919,301.518152 116.693944,299.449944 116.693944,292.958956 C116.693944,286.404331 114.530281,284.177031 111.093876,284.177031 C107.848382,284.177031 105.6529,286.181601 105.6529,292.704408 Z M120.003075,292.736226 C120.003075,300.945417 116.439396,304.318186 111.030239,304.318186 C105.6529,304.318186 102.375588,301.231784 102.375588,292.958956 C102.375588,284.781584 105.939267,281.376997 111.316606,281.376997 C116.662126,281.376997 120.003075,284.495217 120.003075,292.736226 Z M131.457761,281.695182 C135.91236,281.695182 138.839669,283.540659 138.839669,288.154352 C138.839669,292.513496 136.389639,295.440805 130.853208,295.440805 L127.894081,295.440805 L127.894081,304 L124.712224,304 L124.712224,281.695182 L131.457761,281.695182 Z M130.821389,284.495217 L127.894081,284.495217 L127.894081,292.704408 L130.789571,292.704408 C134.35325,292.704408 135.530538,291.145298 135.530538,288.567994 C135.530538,285.672504 133.939609,284.495217 130.821389,284.495217 Z M155.5126,304 L142.880627,304 L142.880627,281.695182 L155.098958,281.695182 L155.098958,284.463398 L146.062484,284.463398 L146.062484,291.304391 L153.95349,291.304391 L153.95349,294.072606 L146.062484,294.072606 L146.062484,301.231784 L155.5126,301.231784 L155.5126,304 Z M163.117238,285.608867 L162.926326,285.608867 C163.021782,287.613436 163.085419,289.363458 163.085419,292.068036 L163.085419,304 L159.999018,304 L159.999018,281.695182 L164.230888,281.695182 L170.880969,294.263518 C171.803707,296.045358 172.821902,297.98629 173.617366,299.799949 L173.808277,299.799949 C173.712822,297.445375 173.712822,295.0908 173.712822,293.08623 L173.712822,281.695182 L176.735586,281.695182 L176.735586,304 L172.599172,304 L165.789998,291.177116 C164.835441,289.363458 164.008158,287.549799 163.117238,285.608867 Z M197.672205,301.486333 C200.376783,301.486333 201.7768,300.054497 201.7768,298.240839 C201.7768,293.627146 191.276672,294.581703 191.276672,287.549799 C191.276672,284.049757 194.235799,281.376997 198.43585,281.376997 C201.299522,281.376997 203.399547,282.458828 204.481379,283.477022 L202.508627,285.927052 C201.55407,285.099769 200.21769,284.240668 198.21312,284.240668 C195.890365,284.240668 194.522166,285.545229 194.522166,287.327069 C194.522166,292.004399 205.054113,291.081661 205.054113,298.049927 C205.054113,301.390877 202.349535,304.318186 197.322201,304.318186 C193.663065,304.318186 191.244854,302.918169 190.099385,301.868156 L191.976681,299.227215 C193.153968,300.21359 194.967626,301.486333 197.672205,301.486333 Z M211.57692,292.704408 C211.57692,299.290852 213.772401,301.518152 217.176988,301.518152 C220.517938,301.518152 222.617964,299.449944 222.617964,292.958956 C222.617964,286.404331 220.454301,284.177031 217.017895,284.177031 C213.772401,284.177031 211.57692,286.181601 211.57692,292.704408 Z M225.927095,292.736226 C225.927095,300.945417 222.363415,304.318186 216.954258,304.318186 C211.57692,304.318186 208.299607,301.231784 208.299607,292.958956 C208.299607,284.781584 211.863287,281.376997 217.240625,281.376997 C222.586145,281.376997 225.927095,284.495217 225.927095,292.736226 Z M238.781797,301.518152 C241.740924,301.518152 243.554583,300.086316 243.554583,296.363543 L243.554583,281.695182 L246.768258,281.695182 L246.768258,295.949902 C246.768258,301.709063 243.363671,304.318186 238.368156,304.318186 C233.14991,304.318186 230.540788,301.263603 230.540788,296.522636 L230.540788,281.695182 L233.722645,281.695182 L233.722645,295.98172 C233.722645,299.736312 235.568122,301.518152 238.781797,301.518152 Z M252.463782,281.695182 L258.541129,281.695182 C263.250278,281.695182 266.050312,283.540659 266.050312,288.058896 C266.050312,291.781669 263.759375,293.818058 261.118433,294.168062 L261.118433,294.295336 C262.07299,294.740796 262.868455,295.504442 263.886649,297.286282 L267.800333,304 L263.950286,304 L260.004783,296.840822 C259.304775,295.568079 258.413855,295.027163 256.950201,295.027163 L255.645639,295.027163 L255.645639,304 L252.463782,304 L252.463782,281.695182 Z M255.645639,284.463398 L255.645639,292.354403 L258.222943,292.354403 C261.150252,292.354403 262.772999,291.145298 262.772999,288.345264 C262.772999,285.545229 261.118433,284.463398 258.095669,284.463398 L255.645639,284.463398 Z M270.473093,293.022593 C270.473093,285.799778 273.686769,281.376997 279.795934,281.376997 C283.486888,281.376997 285.332365,282.808832 286.032374,283.445204 L283.964167,285.863415 C283.105065,285.036132 281.864141,284.208849 279.541385,284.208849 C275.88225,284.208849 273.750406,286.881609 273.750406,292.799863 C273.750406,298.399932 275.818613,301.454514 279.827753,301.454514 C282.023234,301.454514 283.295977,300.722687 284.059622,299.959042 L285.841462,302.21816 C284.886905,303.236354 282.818698,304.318186 279.44593,304.318186 C273.114034,304.318186 270.473093,299.831767 270.473093,293.022593 Z M302.482574,304 L289.850602,304 L289.850602,281.695182 L302.068933,281.695182 L302.068933,284.463398 L293.032459,284.463398 L293.032459,291.304391 L300.923464,291.304391 L300.923464,294.072606 L293.032459,294.072606 L293.032459,301.231784 L302.482574,301.231784 L302.482574,304 Z M323.260101,281.695182 C327.7147,281.695182 330.642009,283.540659 330.642009,288.154352 C330.642009,292.513496 328.191979,295.440805 322.655548,295.440805 L319.696421,295.440805 L319.696421,304 L316.514564,304 L316.514564,281.695182 L323.260101,281.695182 Z M322.623729,284.495217 L319.696421,284.495217 L319.696421,292.704408 L322.591911,292.704408 C326.15559,292.704408 327.332878,291.145298 327.332878,288.567994 C327.332878,285.672504 325.741949,284.495217 322.623729,284.495217 Z M334.682967,281.695182 L340.760314,281.695182 C345.469462,281.695182 348.269497,283.540659 348.269497,288.058896 C348.269497,291.781669 345.97856,293.818058 343.337618,294.168062 L343.337618,294.295336 C344.292175,294.740796 345.08764,295.504442 346.105834,297.286282 L350.019518,304 L346.169471,304 L342.223968,296.840822 C341.52396,295.568079 340.63304,295.027163 339.169386,295.027163 L337.864824,295.027163 L337.864824,304 L334.682967,304 L334.682967,281.695182 Z M337.864824,284.463398 L337.864824,292.354403 L340.442128,292.354403 C343.369437,292.354403 344.992184,291.145298 344.992184,288.345264 C344.992184,285.545229 343.337618,284.463398 340.314854,284.463398 L337.864824,284.463398 Z M355.969591,292.704408 C355.969591,299.290852 358.165072,301.518152 361.569659,301.518152 C364.910609,301.518152 367.010634,299.449944 367.010634,292.958956 C367.010634,286.404331 364.846972,284.177031 361.410566,284.177031 C358.165072,284.177031 355.969591,286.181601 355.969591,292.704408 Z M370.319766,292.736226 C370.319766,300.945417 366.756086,304.318186 361.346929,304.318186 C355.969591,304.318186 352.692278,301.231784 352.692278,292.958956 C352.692278,284.781584 356.255958,281.376997 361.633296,281.376997 C366.978816,281.376997 370.319766,284.495217 370.319766,292.736226 Z M371.719783,303.649996 L372.737977,300.754506 C373.437985,301.168147 374.519817,301.54997 375.760741,301.54997 C377.542581,301.54997 378.210771,300.786324 378.210771,299.004485 L378.210771,281.695182 L381.424447,281.695182 L381.424447,299.163577 C381.424447,302.122704 379.769881,304.413641 375.697104,304.413641 C373.692534,304.413641 372.260698,303.936363 371.719783,303.649996 Z M399.81558,304 L387.183608,304 L387.183608,281.695182 L399.401939,281.695182 L399.401939,284.463398 L390.365465,284.463398 L390.365465,291.304391 L398.25647,291.304391 L398.25647,294.072606 L390.365465,294.072606 L390.365465,301.231784 L399.81558,301.231784 L399.81558,304 Z M403.220167,293.022593 C403.220167,285.799778 406.433843,281.376997 412.543008,281.376997 C416.233962,281.376997 418.079439,282.808832 418.779448,283.445204 L416.711241,285.863415 C415.852139,285.036132 414.611215,284.208849 412.288459,284.208849 C408.629324,284.208849 406.49748,286.881609 406.49748,292.799863 C406.49748,298.399932 408.565687,301.454514 412.574827,301.454514 C414.770308,301.454514 416.043051,300.722687 416.806696,299.959042 L418.588536,302.21816 C417.633979,303.236354 415.565772,304.318186 412.193004,304.318186 C405.861108,304.318186 403.220167,299.831767 403.220167,293.022593 Z M425.84317,304 L425.84317,284.463398 L419.988553,284.463398 L419.988553,281.695182 L434.879644,281.695182 L434.879644,284.463398 L429.056846,284.463398 L429.056846,304 L425.84317,304 Z M443.343384,301.486333 C446.047962,301.486333 447.447979,300.054497 447.447979,298.240839 C447.447979,293.627146 436.947851,294.581703 436.947851,287.549799 C436.947851,284.049757 439.906978,281.376997 444.107029,281.376997 C446.970701,281.376997 449.070726,282.458828 450.152558,283.477022 L448.179806,285.927052 C447.225249,285.099769 445.888869,284.240668 443.884299,284.240668 C441.561544,284.240668 440.193345,285.545229 440.193345,287.327069 C440.193345,292.004399 450.725292,291.081661 450.725292,298.049927 C450.725292,301.390877 448.020714,304.318186 442.993379,304.318186 C439.334244,304.318186 436.916033,302.918169 435.770564,301.868156 L437.64786,299.227215 C438.825147,300.21359 440.638805,301.486333 443.343384,301.486333 Z" id="OUROPENSOURCEPROJECTS" fill="#FFFFFF" fill-rule="nonzero"></path>
                <path d="M207.578335,132.183138 L216.371665,135.174066 L226.720277,139.18191 L226.720277,148.094877 L197.169904,135.473159 L197.169904,128.893116 L226.720277,116.211579 L226.720277,125.124546 L216.431483,129.012753 L207.578335,131.943863 L207.578335,132.183138 Z M244.725667,109.332444 L252.202988,109.332444 L235.274333,162.511153 L227.797012,162.511153 L244.725667,109.332444 Z M272.421665,132.123319 L263.628335,129.132391 L253.279723,125.124546 L253.279723,116.211579 L282.830096,128.833298 L282.830096,135.41334 L253.279723,148.094877 L253.279723,139.18191 L263.568517,135.293703 L272.421665,132.362593 L272.421665,132.123319 Z" id="&lt;/&gt;" fill="#0FB9B1" fill-rule="nonzero"></path>
                <rect id="Rectangle-Copy-5" stroke="#0FB9B1" stroke-width="3" x="1.5" y="1.5" width="479" height="312"></rect>
            </g>
        </g>
    </g>
</svg>