<?xml version="1.0" encoding="UTF-8"?>
<svg width="245px" height="74px" viewBox="0 0 245 74" version="1.1" xmlns="http://www.w3.org/2000/svg" xmlns:xlink="http://www.w3.org/1999/xlink">
    <!-- Generator: Sketch 55.2 (78181) - https://sketchapp.com -->
    <title>Artboard</title>
    <desc>Created with Sketch.</desc>
    <g id="Artboard" stroke="none" stroke-width="1" fill="none" fill-rule="evenodd">
        <path d="M113.5,6 L2.5,6" id="Line" stroke="#3581CA" stroke-linecap="square"></path>
        <ellipse id="Oval-Copy" fill="#3581CA" cx="81.5" cy="6" rx="5.5" ry="5"></ellipse>
        <ellipse id="Oval-Copy-3" fill="#3581CA" cx="42.5" cy="6" rx="5.5" ry="5"></ellipse>
        <ellipse id="Oval-Copy-5" fill="#3581CA" cx="5.5" cy="6" rx="5.5" ry="5"></ellipse>
        <circle id="Oval" fill="#3581CA" cx="102" cy="6" r="3"></circle>
        <circle id="Oval-Copy-2" fill="#3581CA" cx="25" cy="6" r="3"></circle>
        <circle id="Oval-Copy-4" fill="#3581CA" cx="63" cy="6" r="3"></circle>
        <g id="zaitra" transform="translate(7.000000, 1.000000)" fill-rule="nonzero">
            <polygon id="z" fill="#ECF0F1" points="11.0351562 64.6972656 41.9433594 64.6972656 41.9433594 72.0703125 0 72.0703125 0 65.4296875 29.1503906 26.7089844 0.439453125 26.7089844 0.439453125 19.2382812 40.4785156 19.2382812 40.4785156 25.6347656"></polygon>
            <path d="M84.7167969,72.0703125 C84.1959609,71.0286406 83.7727881,69.1731904 83.4472656,66.5039062 C79.2480259,70.8659072 74.2350552,73.046875 68.4082031,73.046875 C63.1998437,73.046875 58.9274255,71.573908 55.5908203,68.6279297 C52.2542151,65.6819514 50.5859375,61.9466372 50.5859375,57.421875 C50.5859375,51.9205454 52.6773879,47.6481272 56.8603516,44.6044922 C61.0433152,41.5608572 66.9270454,40.0390625 74.5117188,40.0390625 L83.3007812,40.0390625 L83.3007812,35.8886719 C83.3007812,32.731104 82.3567803,30.2164807 80.46875,28.3447266 C78.5807197,26.4729724 75.7975444,25.5371094 72.1191406,25.5371094 C68.8964683,25.5371094 66.1946724,26.3509033 64.0136719,27.9785156 C61.8326714,29.6061279 60.7421875,31.5755093 60.7421875,33.8867188 L51.6601562,33.8867188 C51.6601562,31.2499868 52.5960193,28.7028118 54.4677734,26.2451172 C56.3395276,23.7874226 58.8785647,21.8424551 62.0849609,20.4101562 C65.2913572,18.9778574 68.815085,18.2617188 72.65625,18.2617188 C78.74352,18.2617188 83.5123525,19.7835134 86.9628906,22.8271484 C90.4134287,25.8707834 92.2037754,30.0618223 92.3339844,35.4003906 L92.3339844,59.7167969 C92.3339844,64.5670815 92.9524678,68.4244648 94.1894531,71.2890625 L94.1894531,72.0703125 L84.7167969,72.0703125 Z M69.7265625,65.1855469 C72.5586079,65.1855469 75.2441279,64.4531323 77.7832031,62.9882812 C80.3222783,61.5234302 82.1614526,59.6191523 83.3007812,57.2753906 L83.3007812,46.4355469 L76.2207031,46.4355469 C65.1529395,46.4355469 59.6191406,49.6744468 59.6191406,56.1523438 C59.6191406,58.9843892 60.5631416,61.1979087 62.4511719,62.7929688 C64.3392021,64.3880288 66.7643081,65.1855469 69.7265625,65.1855469 Z M116.308594,72.0703125 L107.275391,72.0703125 L107.275391,19.2382812 L116.308594,19.2382812 L116.308594,72.0703125 Z M106.542969,5.22460938 C106.542969,3.7597583 106.990555,2.5227915 107.885742,1.51367188 C108.780929,0.504552246 110.107413,0 111.865234,0 C113.623056,0 114.957678,0.504552246 115.869141,1.51367188 C116.780604,2.5227915 117.236328,3.7597583 117.236328,5.22460938 C117.236328,6.68946045 116.780604,7.91015137 115.869141,8.88671875 C114.957678,9.86328613 113.623056,10.3515625 111.865234,10.3515625 C110.107413,10.3515625 108.780929,9.86328613 107.885742,8.88671875 C106.990555,7.91015137 106.542969,6.68946045 106.542969,5.22460938 Z" id="ai" fill="#3581CA"></path>
            <path d="M143.017578,6.4453125 L143.017578,19.2382812 L152.880859,19.2382812 L152.880859,26.2207031 L143.017578,26.2207031 L143.017578,58.984375 C143.017578,61.100271 143.457027,62.6871692 144.335938,63.7451172 C145.214848,64.8030652 146.712229,65.3320312 148.828125,65.3320312 C149.869797,65.3320312 151.302074,65.1367207 153.125,64.7460938 L153.125,72.0703125 C150.748686,72.7213574 148.437511,73.046875 146.191406,73.046875 C142.154928,73.046875 139.111338,71.8261841 137.060547,69.3847656 C135.009755,66.9433472 133.984375,63.476585 133.984375,58.984375 L133.984375,26.2207031 L124.365234,26.2207031 L124.365234,19.2382812 L133.984375,19.2382812 L133.984375,6.4453125 L143.017578,6.4453125 Z M188.964844,27.34375 C187.597649,27.1158843 186.116544,27.0019531 184.521484,27.0019531 C178.596976,27.0019531 174.576833,29.5247144 172.460938,34.5703125 L172.460938,72.0703125 L163.427734,72.0703125 L163.427734,19.2382812 L172.216797,19.2382812 L172.363281,25.3417969 C175.325536,20.6217212 179.524712,18.2617188 184.960938,18.2617188 C186.718759,18.2617188 188.053381,18.4895811 188.964844,18.9453125 L188.964844,27.34375 Z M227.929688,72.0703125 C227.408852,71.0286406 226.985679,69.1731904 226.660156,66.5039062 C222.460917,70.8659072 217.447946,73.046875 211.621094,73.046875 C206.412734,73.046875 202.140316,71.573908 198.803711,68.6279297 C195.467106,65.6819514 193.798828,61.9466372 193.798828,57.421875 C193.798828,51.9205454 195.890279,47.6481272 200.073242,44.6044922 C204.256206,41.5608572 210.139936,40.0390625 217.724609,40.0390625 L226.513672,40.0390625 L226.513672,35.8886719 C226.513672,32.731104 225.569671,30.2164807 223.681641,28.3447266 C221.79361,26.4729724 219.010435,25.5371094 215.332031,25.5371094 C212.109359,25.5371094 209.407563,26.3509033 207.226562,27.9785156 C205.045562,29.6061279 203.955078,31.5755093 203.955078,33.8867188 L194.873047,33.8867188 C194.873047,31.2499868 195.80891,28.7028118 197.680664,26.2451172 C199.552418,23.7874226 202.091455,21.8424551 205.297852,20.4101562 C208.504248,18.9778574 212.027976,18.2617188 215.869141,18.2617188 C221.956411,18.2617188 226.725243,19.7835134 230.175781,22.8271484 C233.626319,25.8707834 235.416666,30.0618223 235.546875,35.4003906 L235.546875,59.7167969 C235.546875,64.5670815 236.165358,68.4244648 237.402344,71.2890625 L237.402344,72.0703125 L227.929688,72.0703125 Z M212.939453,65.1855469 C215.771499,65.1855469 218.457019,64.4531323 220.996094,62.9882812 C223.535169,61.5234302 225.374343,59.6191523 226.513672,57.2753906 L226.513672,46.4355469 L219.433594,46.4355469 C208.36583,46.4355469 202.832031,49.6744468 202.832031,56.1523438 C202.832031,58.9843892 203.776032,61.1979087 205.664062,62.7929688 C207.552093,64.3880288 209.977199,65.1855469 212.939453,65.1855469 Z" id="tra" fill="#ECF0F1"></path>
        </g>
    </g>
</svg>